{"accessors":[{"bufferView":0,"byteOffset":0,"componentType":5123,"count":16527,"type":"SCALAR"},{"bufferView":1,"byteOffset":0,"componentType":5126,"count":11705,"max":[0.936097264289856,0.429709434509277,1.2883677482605],"min":[-0.29958295822144,-0.00765358656645,-0.81342756748199],"type":"VEC3"},{"bufferView":2,"byteOffset":0,"componentType":5126,"count":11705,"type":"VEC3"},{"bufferView":3,"byteOffset":0,"componentType":5126,"count":11705,"type":"VEC2"}],"asset":{"generator":"FBX2glTF v0.13.0","version":"2.0"},"bufferViews":[{"buffer":0,"byteLength":33054,"byteOffset":0,"target":34963},{"buffer":0,"byteLength":140460,"byteOffset":33056,"target":34962},{"buffer":0,"byteLength":140460,"byteOffset":173516,"target":34962},{"buffer":0,"byteLength":93640,"byteOffset":313976,"target":34962}],"buffers":[{"byteLength":407616,"uri":"Animal_Bone_Piles_4.bin"}],"materials":[{"alphaMode":"OPAQUE","doubleSided":false,"extras":{"fromFBX":{"isTruePBR":false,"shadingModel":"Lambert"}},"name":"DefaultMaterial","pbrMetallicRoughness":{"baseColorFactor":[0.5,0.5,0.5,1],"metallicFactor":0.200000002980232,"roughnessFactor":0.800000011920929}}],"meshes":[{"name":"Animal_Bone_Piles_4","primitives":[{"attributes":{"NORMAL":2,"POSITION":1,"TEXCOORD_0":3},"indices":0,"material":0,"mode":4}]}],"nodes":[{"mesh":0,"name":"Animal_Bone_Piles_4","originalUnits":0.00999999977648258,"pivot":[0,0,0],"rotation":[0,0,0,1],"scale":[1,1,1],"translation":[0,0,0]}],"samplers":[{}],"scene":0,"scenes":[{"name":"Root Scene","nodes":[0]}]}