{"accessors":[{"bufferView":0,"byteOffset":0,"componentType":5123,"count":39618,"type":"SCALAR"},{"bufferView":1,"byteOffset":0,"componentType":5126,"count":28382,"max":[1.73368859291077,0.505712389945984,2.51024270057678],"min":[-1.90495133399963,-0.07169818878174,-2.80138397216797],"type":"VEC3"},{"bufferView":2,"byteOffset":0,"componentType":5126,"count":28382,"type":"VEC3"},{"bufferView":3,"byteOffset":0,"componentType":5126,"count":28382,"type":"VEC2"}],"asset":{"generator":"FBX2glTF v0.13.0","version":"2.0"},"bufferViews":[{"buffer":0,"byteLength":79236,"byteOffset":0,"target":34963},{"buffer":0,"byteLength":340584,"byteOffset":79236,"target":34962},{"buffer":0,"byteLength":340584,"byteOffset":419820,"target":34962},{"buffer":0,"byteLength":227056,"byteOffset":760404,"target":34962}],"buffers":[{"byteLength":987460,"uri":"Animal_Bone_Piles_5.bin"}],"materials":[{"alphaMode":"OPAQUE","doubleSided":false,"extras":{"fromFBX":{"isTruePBR":false,"shadingModel":"Lambert"}},"name":"DefaultMaterial","pbrMetallicRoughness":{"baseColorFactor":[0.5,0.5,0.5,1],"metallicFactor":0.200000002980232,"roughnessFactor":0.800000011920929}}],"meshes":[{"name":"Animal_Bone_Piles_5","primitives":[{"attributes":{"NORMAL":2,"POSITION":1,"TEXCOORD_0":3},"indices":0,"material":0,"mode":4}]}],"nodes":[{"mesh":0,"name":"Animal_Bone_Piles_5","originalUnits":0.00999999977648258,"pivot":[0,0,0],"rotation":[0,0,0,1],"scale":[1,1,1],"translation":[0,0,0]}],"samplers":[{}],"scene":0,"scenes":[{"name":"Root Scene","nodes":[0]}]}