{"accessors":[{"bufferView":0,"byteOffset":0,"componentType":5123,"count":10668,"type":"SCALAR"},{"bufferView":1,"byteOffset":0,"componentType":5126,"count":7572,"max":[1.63762032985687,0.457683771848679,0.633407354354858],"min":[-0.87148982286453,-0.09255523234606,-1.79472541809082],"type":"VEC3"},{"bufferView":2,"byteOffset":0,"componentType":5126,"count":7572,"type":"VEC3"},{"bufferView":3,"byteOffset":0,"componentType":5126,"count":7572,"type":"VEC2"}],"asset":{"generator":"FBX2glTF v0.13.0","version":"2.0"},"bufferViews":[{"buffer":0,"byteLength":21336,"byteOffset":0,"target":34963},{"buffer":0,"byteLength":90864,"byteOffset":21336,"target":34962},{"buffer":0,"byteLength":90864,"byteOffset":112200,"target":34962},{"buffer":0,"byteLength":60576,"byteOffset":203064,"target":34962}],"buffers":[{"byteLength":263640,"uri":"Animal_Bone_Piles_3.bin"}],"materials":[{"alphaMode":"OPAQUE","doubleSided":false,"extras":{"fromFBX":{"isTruePBR":false,"shadingModel":"Lambert"}},"name":"DefaultMaterial","pbrMetallicRoughness":{"baseColorFactor":[0.5,0.5,0.5,1],"metallicFactor":0.200000002980232,"roughnessFactor":0.800000011920929}}],"meshes":[{"name":"Animal_Bone_Piles_3","primitives":[{"attributes":{"NORMAL":2,"POSITION":1,"TEXCOORD_0":3},"indices":0,"material":0,"mode":4}]}],"nodes":[{"mesh":0,"name":"Animal_Bone_Piles_3","originalUnits":0.00999999977648258,"pivot":[0,0,0],"rotation":[0,0,0,1],"scale":[1,1,1],"translation":[0,0,0]}],"samplers":[{}],"scene":0,"scenes":[{"name":"Root Scene","nodes":[0]}]}