{"accessors":[{"bufferView":0,"byteOffset":0,"componentType":5123,"count":696,"type":"SCALAR"},{"bufferView":1,"byteOffset":0,"componentType":5126,"count":504,"max":[0.206415593624115,0.0895352140069008,0.0690879449248314],"min":[-0.22549323737621,0,-0.05469573289156],"type":"VEC3"},{"bufferView":2,"byteOffset":0,"componentType":5126,"count":504,"type":"VEC3"},{"bufferView":3,"byteOffset":0,"componentType":5126,"count":504,"type":"VEC2"}],"asset":{"generator":"FBX2glTF v0.13.0","version":"2.0"},"bufferViews":[{"buffer":0,"byteLength":1392,"byteOffset":0,"target":34963},{"buffer":0,"byteLength":6048,"byteOffset":1392,"target":34962},{"buffer":0,"byteLength":6048,"byteOffset":7440,"target":34962},{"buffer":0,"byteLength":4032,"byteOffset":13488,"target":34962}],"buffers":[{"byteLength":17520,"uri":"Animal_Bone_2.bin"}],"materials":[{"alphaMode":"OPAQUE","doubleSided":false,"extras":{"fromFBX":{"isTruePBR":false,"shadingModel":"Lambert"}},"name":"DefaultMaterial","pbrMetallicRoughness":{"baseColorFactor":[0.5,0.5,0.5,1],"metallicFactor":0.200000002980232,"roughnessFactor":0.800000011920929}}],"meshes":[{"name":"Animal_Bone_2","primitives":[{"attributes":{"NORMAL":2,"POSITION":1,"TEXCOORD_0":3},"indices":0,"material":0,"mode":4}]}],"nodes":[{"mesh":0,"name":"Animal_Bone_2","originalUnits":0.00999999977648258,"pivot":[0,0,0],"rotation":[0,0,0,1],"scale":[1,1,1],"translation":[0,0,0]}],"samplers":[{}],"scene":0,"scenes":[{"name":"Root Scene","nodes":[0]}]}