{"accessors":[{"bufferView":0,"byteOffset":0,"componentType":5123,"count":3480,"type":"SCALAR"},{"bufferView":1,"byteOffset":0,"componentType":5126,"count":2520,"max":[0.374788194894791,0.247424557805061,0.309510171413422],"min":[-0.34869840741157,-0.0119773671031,-0.2518772482872],"type":"VEC3"},{"bufferView":2,"byteOffset":0,"componentType":5126,"count":2520,"type":"VEC3"},{"bufferView":3,"byteOffset":0,"componentType":5126,"count":2520,"type":"VEC2"}],"asset":{"generator":"FBX2glTF v0.13.0","version":"2.0"},"bufferViews":[{"buffer":0,"byteLength":6960,"byteOffset":0,"target":34963},{"buffer":0,"byteLength":30240,"byteOffset":6960,"target":34962},{"buffer":0,"byteLength":30240,"byteOffset":37200,"target":34962},{"buffer":0,"byteLength":20160,"byteOffset":67440,"target":34962}],"buffers":[{"byteLength":87600,"uri":"Animal_Bone_Pile_2.bin"}],"materials":[{"alphaMode":"OPAQUE","doubleSided":false,"extras":{"fromFBX":{"isTruePBR":false,"shadingModel":"Lambert"}},"name":"DefaultMaterial","pbrMetallicRoughness":{"baseColorFactor":[0.5,0.5,0.5,1],"metallicFactor":0.200000002980232,"roughnessFactor":0.800000011920929}}],"meshes":[{"name":"Animal_Bone_Pile_2","primitives":[{"attributes":{"NORMAL":2,"POSITION":1,"TEXCOORD_0":3},"indices":0,"material":0,"mode":4}]}],"nodes":[{"mesh":0,"name":"Animal_Bone_Pile_2","originalUnits":0.00999999977648258,"pivot":[0,0,0],"rotation":[0,0,0,1],"scale":[1,1,1],"translation":[0,0,0]}],"samplers":[{}],"scene":0,"scenes":[{"name":"Root Scene","nodes":[0]}]}