{"accessors":[{"bufferView":0,"byteOffset":0,"componentType":5123,"count":17976,"type":"SCALAR"},{"bufferView":1,"byteOffset":0,"componentType":5126,"count":12864,"max":[2.07937407493591,0.435952305793762,1.75918877124786],"min":[-1.14569973945618,-0.01853792369366,-0.48373678326607],"type":"VEC3"},{"bufferView":2,"byteOffset":0,"componentType":5126,"count":12864,"type":"VEC3"},{"bufferView":3,"byteOffset":0,"componentType":5126,"count":12864,"type":"VEC2"}],"asset":{"generator":"FBX2glTF v0.13.0","version":"2.0"},"bufferViews":[{"buffer":0,"byteLength":35952,"byteOffset":0,"target":34963},{"buffer":0,"byteLength":154368,"byteOffset":35952,"target":34962},{"buffer":0,"byteLength":154368,"byteOffset":190320,"target":34962},{"buffer":0,"byteLength":102912,"byteOffset":344688,"target":34962}],"buffers":[{"byteLength":447600,"uri":"Animal_Bone_Piles_2.bin"}],"materials":[{"alphaMode":"OPAQUE","doubleSided":false,"extras":{"fromFBX":{"isTruePBR":false,"shadingModel":"Lambert"}},"name":"DefaultMaterial","pbrMetallicRoughness":{"baseColorFactor":[0.5,0.5,0.5,1],"metallicFactor":0.200000002980232,"roughnessFactor":0.800000011920929}}],"meshes":[{"name":"Animal_Bone_Piles_2","primitives":[{"attributes":{"NORMAL":2,"POSITION":1,"TEXCOORD_0":3},"indices":0,"material":0,"mode":4}]}],"nodes":[{"mesh":0,"name":"Animal_Bone_Piles_2","originalUnits":0.00999999977648258,"pivot":[0,0,0],"rotation":[0,0,0,1],"scale":[1,1,1],"translation":[0,0,0]}],"samplers":[{}],"scene":0,"scenes":[{"name":"Root Scene","nodes":[0]}]}