{"accessors":[{"bufferView":0,"byteOffset":0,"componentType":5123,"count":1332,"type":"SCALAR"},{"bufferView":1,"byteOffset":0,"componentType":5126,"count":888,"max":[0.23099422454834,0.356570988893509,0.138238579034805],"min":[-0.22237773239613,-0.04926193505526,-0.13767959177494],"type":"VEC3"},{"bufferView":2,"byteOffset":0,"componentType":5126,"count":888,"type":"VEC3"},{"bufferView":3,"byteOffset":0,"componentType":5126,"count":888,"type":"VEC2"}],"asset":{"generator":"FBX2glTF v0.13.0","version":"2.0"},"bufferViews":[{"buffer":0,"byteLength":2664,"byteOffset":0,"target":34963},{"buffer":0,"byteLength":10656,"byteOffset":2664,"target":34962},{"buffer":0,"byteLength":10656,"byteOffset":13320,"target":34962},{"buffer":0,"byteLength":7104,"byteOffset":23976,"target":34962}],"buffers":[{"byteLength":31080,"uri":"Animal_Bone_5.bin"}],"materials":[{"alphaMode":"OPAQUE","doubleSided":false,"extras":{"fromFBX":{"isTruePBR":false,"shadingModel":"Lambert"}},"name":"DefaultMaterial","pbrMetallicRoughness":{"baseColorFactor":[0.5,0.5,0.5,1],"metallicFactor":0.200000002980232,"roughnessFactor":0.800000011920929}}],"meshes":[{"name":"Animal_Bone_5","primitives":[{"attributes":{"NORMAL":2,"POSITION":1,"TEXCOORD_0":3},"indices":0,"material":0,"mode":4}]}],"nodes":[{"mesh":0,"name":"Animal_Bone_5","originalUnits":0.00999999977648258,"pivot":[0,0,0],"rotation":[0,0,0,1],"scale":[1,1,1],"translation":[0,0,0]}],"samplers":[{}],"scene":0,"scenes":[{"name":"Root Scene","nodes":[0]}]}