{"accessors":[{"bufferView":0,"byteOffset":0,"componentType":5123,"count":1392,"type":"SCALAR"},{"bufferView":1,"byteOffset":0,"componentType":5126,"count":1008,"max":[0.288924306631088,0.15374056994915,0.305363059043884],"min":[-0.34231096506119,-0.04410073533654,-0.25016433000565],"type":"VEC3"},{"bufferView":2,"byteOffset":0,"componentType":5126,"count":1008,"type":"VEC3"},{"bufferView":3,"byteOffset":0,"componentType":5126,"count":1008,"type":"VEC2"}],"asset":{"generator":"FBX2glTF v0.13.0","version":"2.0"},"bufferViews":[{"buffer":0,"byteLength":2784,"byteOffset":0,"target":34963},{"buffer":0,"byteLength":12096,"byteOffset":2784,"target":34962},{"buffer":0,"byteLength":12096,"byteOffset":14880,"target":34962},{"buffer":0,"byteLength":8064,"byteOffset":26976,"target":34962}],"buffers":[{"byteLength":35040,"uri":"Animal_Bone_Pile_1.bin"}],"materials":[{"alphaMode":"OPAQUE","doubleSided":false,"extras":{"fromFBX":{"isTruePBR":false,"shadingModel":"Lambert"}},"name":"DefaultMaterial","pbrMetallicRoughness":{"baseColorFactor":[0.5,0.5,0.5,1],"metallicFactor":0.200000002980232,"roughnessFactor":0.800000011920929}}],"meshes":[{"name":"Animal_Bone_Pile_1","primitives":[{"attributes":{"NORMAL":2,"POSITION":1,"TEXCOORD_0":3},"indices":0,"material":0,"mode":4}]}],"nodes":[{"mesh":0,"name":"Animal_Bone_Pile_1","originalUnits":0.00999999977648258,"pivot":[0,0,0],"rotation":[0,0,0,1],"scale":[1,1,1],"translation":[0,0,0]}],"samplers":[{}],"scene":0,"scenes":[{"name":"Root Scene","nodes":[0]}]}