{"accessors":[{"bufferView":0,"byteOffset":0,"componentType":5123,"count":10974,"type":"SCALAR"},{"bufferView":1,"byteOffset":0,"componentType":5126,"count":7882,"max":[1.13258826732635,0.488386571407318,1.13041591644287],"min":[-0.70583242177963,-0.01142811775208,-0.8860474228859],"type":"VEC3"},{"bufferView":2,"byteOffset":0,"componentType":5126,"count":7882,"type":"VEC3"},{"bufferView":3,"byteOffset":0,"componentType":5126,"count":7882,"type":"VEC2"}],"asset":{"generator":"FBX2glTF v0.13.0","version":"2.0"},"bufferViews":[{"buffer":0,"byteLength":21948,"byteOffset":0,"target":34963},{"buffer":0,"byteLength":94584,"byteOffset":21948,"target":34962},{"buffer":0,"byteLength":94584,"byteOffset":116532,"target":34962},{"buffer":0,"byteLength":63056,"byteOffset":211116,"target":34962}],"buffers":[{"byteLength":274172,"uri":"Animal_Bone_Piles_1.bin"}],"materials":[{"alphaMode":"OPAQUE","doubleSided":false,"extras":{"fromFBX":{"isTruePBR":false,"shadingModel":"Lambert"}},"name":"DefaultMaterial","pbrMetallicRoughness":{"baseColorFactor":[0.5,0.5,0.5,1],"metallicFactor":0.200000002980232,"roughnessFactor":0.800000011920929}}],"meshes":[{"name":"Animal_Bone_Piles_1","primitives":[{"attributes":{"NORMAL":2,"POSITION":1,"TEXCOORD_0":3},"indices":0,"material":0,"mode":4}]}],"nodes":[{"mesh":0,"name":"Animal_Bone_Piles_1","originalUnits":0.00999999977648258,"pivot":[0,0,0],"rotation":[0,0,0,1],"scale":[1,1,1],"translation":[0,0,0]}],"samplers":[{}],"scene":0,"scenes":[{"name":"Root Scene","nodes":[0]}]}