{"accessors":[{"bufferView":0,"byteOffset":0,"componentType":5123,"count":414,"type":"SCALAR"},{"bufferView":1,"byteOffset":0,"componentType":5126,"count":280,"max":[0.0181583110243082,0.253913372755051,0.0174858011305332],"min":[-0.01865098252892,-0.24596181511879,-0.01416804548353],"type":"VEC3"},{"bufferView":2,"byteOffset":0,"componentType":5126,"count":280,"type":"VEC3"},{"bufferView":3,"byteOffset":0,"componentType":5126,"count":280,"type":"VEC2"}],"asset":{"generator":"FBX2glTF v0.13.0","version":"2.0"},"bufferViews":[{"buffer":0,"byteLength":828,"byteOffset":0,"target":34963},{"buffer":0,"byteLength":3360,"byteOffset":828,"target":34962},{"buffer":0,"byteLength":3360,"byteOffset":4188,"target":34962},{"buffer":0,"byteLength":2240,"byteOffset":7548,"target":34962}],"buffers":[{"byteLength":9788,"uri":"Basic_Wand.bin"}],"materials":[{"alphaMode":"OPAQUE","doubleSided":false,"extras":{"fromFBX":{"isTruePBR":false,"shadingModel":"Lambert"}},"name":"DefaultMaterial","pbrMetallicRoughness":{"baseColorFactor":[0.5,0.5,0.5,1],"metallicFactor":0.200000002980232,"roughnessFactor":0.800000011920929}}],"meshes":[{"name":"Basic_Wand","primitives":[{"attributes":{"NORMAL":2,"POSITION":1,"TEXCOORD_0":3},"indices":0,"material":0,"mode":4}]}],"nodes":[{"mesh":0,"name":"Basic_Wand","originalUnits":0.00999999977648258,"pivot":[0,0,0],"rotation":[0,0,0,1],"scale":[1,1,1],"translation":[0,0,0]}],"samplers":[{}],"scene":0,"scenes":[{"name":"Root Scene","nodes":[0]}]}