{"accessors":[{"bufferView":0,"byteOffset":0,"componentType":5123,"count":414,"type":"SCALAR"},{"bufferView":1,"byteOffset":0,"componentType":5126,"count":290,"max":[0.119137562811375,0.0810945853590965,0.153331592679024],"min":[-0.12791827321053,-0.00469425320625,-0.15934029221535],"type":"VEC3"},{"bufferView":2,"byteOffset":0,"componentType":5126,"count":290,"type":"VEC3"},{"bufferView":3,"byteOffset":0,"componentType":5126,"count":290,"type":"VEC2"}],"asset":{"generator":"FBX2glTF v0.13.0","version":"2.0"},"bufferViews":[{"buffer":0,"byteLength":828,"byteOffset":0,"target":34963},{"buffer":0,"byteLength":3480,"byteOffset":828,"target":34962},{"buffer":0,"byteLength":3480,"byteOffset":4308,"target":34962},{"buffer":0,"byteLength":2320,"byteOffset":7788,"target":34962}],"buffers":[{"byteLength":10108,"uri":"Basic_Spellbook.bin"}],"materials":[{"alphaMode":"OPAQUE","doubleSided":false,"extras":{"fromFBX":{"isTruePBR":false,"shadingModel":"Lambert"}},"name":"DefaultMaterial","pbrMetallicRoughness":{"baseColorFactor":[0.5,0.5,0.5,1],"metallicFactor":0.200000002980232,"roughnessFactor":0.800000011920929}}],"meshes":[{"name":"Basic_Spellbook","primitives":[{"attributes":{"NORMAL":2,"POSITION":1,"TEXCOORD_0":3},"indices":0,"material":0,"mode":4}]}],"nodes":[{"mesh":0,"name":"Basic_Spellbook","originalUnits":0.00999999977648258,"pivot":[0,0,0],"rotation":[0,0,0,1],"scale":[1,1,1],"translation":[0,0,0]}],"samplers":[{}],"scene":0,"scenes":[{"name":"Root Scene","nodes":[0]}]}