{"accessors":[{"bufferView":0,"byteOffset":0,"componentType":5123,"count":3192,"type":"SCALAR"},{"bufferView":1,"byteOffset":0,"componentType":5126,"count":2140,"max":[0.0896896049380302,0.141552209854126,0.01137659791857],"min":[-0.08653631806374,-0.13365438580513,-0.00000000558794],"type":"VEC3"},{"bufferView":2,"byteOffset":0,"componentType":5126,"count":2140,"type":"VEC3"},{"bufferView":3,"byteOffset":0,"componentType":5126,"count":2140,"type":"VEC2"}],"asset":{"generator":"FBX2glTF v0.13.0","version":"2.0"},"bufferViews":[{"buffer":0,"byteLength":6384,"byteOffset":0,"target":34963},{"buffer":0,"byteLength":25680,"byteOffset":6384,"target":34962},{"buffer":0,"byteLength":25680,"byteOffset":32064,"target":34962},{"buffer":0,"byteLength":17120,"byteOffset":57744,"target":34962}],"buffers":[{"byteLength":74864,"uri":"Basic_Amulet.bin"}],"materials":[{"alphaMode":"OPAQUE","doubleSided":false,"extras":{"fromFBX":{"isTruePBR":false,"shadingModel":"Lambert"}},"name":"DefaultMaterial","pbrMetallicRoughness":{"baseColorFactor":[0.5,0.5,0.5,1],"metallicFactor":0.200000002980232,"roughnessFactor":0.800000011920929}}],"meshes":[{"name":"Basic_Amulet","primitives":[{"attributes":{"NORMAL":2,"POSITION":1,"TEXCOORD_0":3},"indices":0,"material":0,"mode":4}]}],"nodes":[{"mesh":0,"name":"Basic_Amulet","originalUnits":0.00999999977648258,"pivot":[0,0,0],"rotation":[-0.70710682868957,0,0,0.707106709480286],"scale":[1,1,1],"translation":[0,0,0]}],"samplers":[{}],"scene":0,"scenes":[{"name":"Root Scene","nodes":[0]}]}