{"accessors":[{"bufferView":0,"byteOffset":0,"componentType":5123,"count":1116,"type":"SCALAR"},{"bufferView":1,"byteOffset":0,"componentType":5126,"count":788,"max":[0.0593974329531193,0.204523369669914,0.0574536323547363],"min":[-0.05777485668659,0.00026396184694021,-0.05942659825087],"type":"VEC3"},{"bufferView":2,"byteOffset":0,"componentType":5126,"count":788,"type":"VEC3"},{"bufferView":3,"byteOffset":0,"componentType":5126,"count":788,"type":"VEC2"}],"asset":{"generator":"FBX2glTF v0.13.0","version":"2.0"},"bufferViews":[{"buffer":0,"byteLength":2232,"byteOffset":0,"target":34963},{"buffer":0,"byteLength":9456,"byteOffset":2232,"target":34962},{"buffer":0,"byteLength":9456,"byteOffset":11688,"target":34962},{"buffer":0,"byteLength":6304,"byteOffset":21144,"target":34962}],"buffers":[{"byteLength":27448,"uri":"Candles_05.bin"}],"materials":[{"alphaMode":"OPAQUE","doubleSided":false,"extras":{"fromFBX":{"isTruePBR":false,"shadingModel":"Lambert"}},"name":"DefaultMaterial","pbrMetallicRoughness":{"baseColorFactor":[0.5,0.5,0.5,1],"metallicFactor":0.200000002980232,"roughnessFactor":0.800000011920929}}],"meshes":[{"name":"Candles_05","primitives":[{"attributes":{"NORMAL":2,"POSITION":1,"TEXCOORD_0":3},"indices":0,"material":0,"mode":4}]}],"nodes":[{"mesh":0,"name":"Candles_05","originalUnits":0.00999999977648258,"pivot":[0,0,0],"rotation":[0,0,0,1],"scale":[1,1,1],"translation":[0,0,0]}],"samplers":[{}],"scene":0,"scenes":[{"name":"Root Scene","nodes":[0]}]}