{"accessors":[{"bufferView":0,"byteOffset":0,"componentType":5123,"count":1122,"type":"SCALAR"},{"bufferView":1,"byteOffset":0,"componentType":5126,"count":794,"max":[0.0708152055740356,0.482600003480911,0.0761754959821701],"min":[-0.07494955509901,0.00152024114504457,-0.07384603470564],"type":"VEC3"},{"bufferView":2,"byteOffset":0,"componentType":5126,"count":794,"type":"VEC3"},{"bufferView":3,"byteOffset":0,"componentType":5126,"count":794,"type":"VEC2"}],"asset":{"generator":"FBX2glTF v0.13.0","version":"2.0"},"bufferViews":[{"buffer":0,"byteLength":2244,"byteOffset":0,"target":34963},{"buffer":0,"byteLength":9528,"byteOffset":2244,"target":34962},{"buffer":0,"byteLength":9528,"byteOffset":11772,"target":34962},{"buffer":0,"byteLength":6352,"byteOffset":21300,"target":34962}],"buffers":[{"byteLength":27652,"uri":"Candles_10.bin"}],"materials":[{"alphaMode":"OPAQUE","doubleSided":false,"extras":{"fromFBX":{"isTruePBR":false,"shadingModel":"Lambert"}},"name":"DefaultMaterial","pbrMetallicRoughness":{"baseColorFactor":[0.5,0.5,0.5,1],"metallicFactor":0.200000002980232,"roughnessFactor":0.800000011920929}}],"meshes":[{"name":"Candles_10","primitives":[{"attributes":{"NORMAL":2,"POSITION":1,"TEXCOORD_0":3},"indices":0,"material":0,"mode":4}]}],"nodes":[{"mesh":0,"name":"Candles_10","originalUnits":0.00999999977648258,"pivot":[0,0,0],"rotation":[0,0,0,1],"scale":[1,1,1],"translation":[0,0,0]}],"samplers":[{}],"scene":0,"scenes":[{"name":"Root Scene","nodes":[0]}]}