{"accessors":[{"bufferView":0,"byteOffset":0,"componentType":5123,"count":1170,"type":"SCALAR"},{"bufferView":1,"byteOffset":0,"componentType":5126,"count":826,"max":[0.0592699646949768,0.447000652551651,0.0561592951416969],"min":[-0.05761024728417,-0.00001772631185,-0.06338600069284],"type":"VEC3"},{"bufferView":2,"byteOffset":0,"componentType":5126,"count":826,"type":"VEC3"},{"bufferView":3,"byteOffset":0,"componentType":5126,"count":826,"type":"VEC2"}],"asset":{"generator":"FBX2glTF v0.13.0","version":"2.0"},"bufferViews":[{"buffer":0,"byteLength":2340,"byteOffset":0,"target":34963},{"buffer":0,"byteLength":9912,"byteOffset":2340,"target":34962},{"buffer":0,"byteLength":9912,"byteOffset":12252,"target":34962},{"buffer":0,"byteLength":6608,"byteOffset":22164,"target":34962}],"buffers":[{"byteLength":28772,"uri":"Candles_02.bin"}],"materials":[{"alphaMode":"OPAQUE","doubleSided":false,"extras":{"fromFBX":{"isTruePBR":false,"shadingModel":"Lambert"}},"name":"DefaultMaterial","pbrMetallicRoughness":{"baseColorFactor":[0.5,0.5,0.5,1],"metallicFactor":0.200000002980232,"roughnessFactor":0.800000011920929}}],"meshes":[{"name":"Candles_02","primitives":[{"attributes":{"NORMAL":2,"POSITION":1,"TEXCOORD_0":3},"indices":0,"material":0,"mode":4}]}],"nodes":[{"mesh":0,"name":"Candles_02","originalUnits":0.00999999977648258,"pivot":[0,0,0],"rotation":[0,0,0,1],"scale":[1,1,1],"translation":[0,0,0]}],"samplers":[{}],"scene":0,"scenes":[{"name":"Root Scene","nodes":[0]}]}