{"accessors":[{"bufferView":0,"byteOffset":0,"componentType":5123,"count":1092,"type":"SCALAR"},{"bufferView":1,"byteOffset":0,"componentType":5126,"count":774,"max":[0.0593974329531193,0.157448872923851,0.0574536323547363],"min":[-0.05777485668659,0.00053881504572928,-0.05942659825087],"type":"VEC3"},{"bufferView":2,"byteOffset":0,"componentType":5126,"count":774,"type":"VEC3"},{"bufferView":3,"byteOffset":0,"componentType":5126,"count":774,"type":"VEC2"}],"asset":{"generator":"FBX2glTF v0.13.0","version":"2.0"},"bufferViews":[{"buffer":0,"byteLength":2184,"byteOffset":0,"target":34963},{"buffer":0,"byteLength":9288,"byteOffset":2184,"target":34962},{"buffer":0,"byteLength":9288,"byteOffset":11472,"target":34962},{"buffer":0,"byteLength":6192,"byteOffset":20760,"target":34962}],"buffers":[{"byteLength":26952,"uri":"Candles_03.bin"}],"materials":[{"alphaMode":"OPAQUE","doubleSided":false,"extras":{"fromFBX":{"isTruePBR":false,"shadingModel":"Lambert"}},"name":"DefaultMaterial","pbrMetallicRoughness":{"baseColorFactor":[0.5,0.5,0.5,1],"metallicFactor":0.200000002980232,"roughnessFactor":0.800000011920929}}],"meshes":[{"name":"Candles_03","primitives":[{"attributes":{"NORMAL":2,"POSITION":1,"TEXCOORD_0":3},"indices":0,"material":0,"mode":4}]}],"nodes":[{"mesh":0,"name":"Candles_03","originalUnits":0.00999999977648258,"pivot":[0,0,0],"rotation":[0,0,0,1],"scale":[1,1,1],"translation":[0,0,0]}],"samplers":[{}],"scene":0,"scenes":[{"name":"Root Scene","nodes":[0]}]}