{"accessors":[{"bufferView":0,"byteOffset":0,"componentType":5123,"count":1122,"type":"SCALAR"},{"bufferView":1,"byteOffset":0,"componentType":5126,"count":794,"max":[0.0570243522524834,0.249366700649261,0.0599185042083263],"min":[-0.05891725793481,0.00162415590602905,-0.05982175841928],"type":"VEC3"},{"bufferView":2,"byteOffset":0,"componentType":5126,"count":794,"type":"VEC3"},{"bufferView":3,"byteOffset":0,"componentType":5126,"count":794,"type":"VEC2"}],"asset":{"generator":"FBX2glTF v0.13.0","version":"2.0"},"bufferViews":[{"buffer":0,"byteLength":2244,"byteOffset":0,"target":34963},{"buffer":0,"byteLength":9528,"byteOffset":2244,"target":34962},{"buffer":0,"byteLength":9528,"byteOffset":11772,"target":34962},{"buffer":0,"byteLength":6352,"byteOffset":21300,"target":34962}],"buffers":[{"byteLength":27652,"uri":"Candles_06.bin"}],"materials":[{"alphaMode":"OPAQUE","doubleSided":false,"extras":{"fromFBX":{"isTruePBR":false,"shadingModel":"Lambert"}},"name":"DefaultMaterial","pbrMetallicRoughness":{"baseColorFactor":[0.5,0.5,0.5,1],"metallicFactor":0.200000002980232,"roughnessFactor":0.800000011920929}}],"meshes":[{"name":"Candles_06","primitives":[{"attributes":{"NORMAL":2,"POSITION":1,"TEXCOORD_0":3},"indices":0,"material":0,"mode":4}]}],"nodes":[{"mesh":0,"name":"Candles_06","originalUnits":0.00999999977648258,"pivot":[0,0,0],"rotation":[0,0,0,1],"scale":[1,1,1],"translation":[0,0,0]}],"samplers":[{}],"scene":0,"scenes":[{"name":"Root Scene","nodes":[0]}]}