{"accessors":[{"bufferView":0,"byteOffset":0,"componentType":5123,"count":1014,"type":"SCALAR"},{"bufferView":1,"byteOffset":0,"componentType":5126,"count":690,"max":[0.0506658405065536,0.506457686424255,0.0310649964958429],"min":[-0.03256950154901,-1.17558836936951,-0.03760152310133],"type":"VEC3"},{"bufferView":2,"byteOffset":0,"componentType":5126,"count":690,"type":"VEC3"},{"bufferView":3,"byteOffset":0,"componentType":5126,"count":690,"type":"VEC2"}],"asset":{"generator":"FBX2glTF v0.13.0","version":"2.0"},"bufferViews":[{"buffer":0,"byteLength":2028,"byteOffset":0,"target":34963},{"buffer":0,"byteLength":8280,"byteOffset":2028,"target":34962},{"buffer":0,"byteLength":8280,"byteOffset":10308,"target":34962},{"buffer":0,"byteLength":5520,"byteOffset":18588,"target":34962}],"buffers":[{"byteLength":24108,"uri":"Carved_Staff.bin"}],"materials":[{"alphaMode":"OPAQUE","doubleSided":false,"extras":{"fromFBX":{"isTruePBR":false,"shadingModel":"Lambert"}},"name":"DefaultMaterial","pbrMetallicRoughness":{"baseColorFactor":[0.5,0.5,0.5,1],"metallicFactor":0.200000002980232,"roughnessFactor":0.800000011920929}}],"meshes":[{"name":"Carved_Staff","primitives":[{"attributes":{"NORMAL":2,"POSITION":1,"TEXCOORD_0":3},"indices":0,"material":0,"mode":4}]}],"nodes":[{"mesh":0,"name":"Carved_Staff","originalUnits":0.00999999977648258,"pivot":[0,0,0],"rotation":[0,0,0,1],"scale":[1,1,1],"translation":[0,0,0]}],"samplers":[{}],"scene":0,"scenes":[{"name":"Root Scene","nodes":[0]}]}