{"accessors":[{"bufferView":0,"byteOffset":0,"componentType":5123,"count":1728,"type":"SCALAR"},{"bufferView":1,"byteOffset":0,"componentType":5126,"count":1164,"max":[0.169711410999298,0.344286024570465,0.144356802105904],"min":[-0.16786408424377,0.00042699015466496,-0.14719124138355],"type":"VEC3"},{"bufferView":2,"byteOffset":0,"componentType":5126,"count":1164,"type":"VEC3"},{"bufferView":3,"byteOffset":0,"componentType":5126,"count":1164,"type":"VEC2"}],"asset":{"generator":"FBX2glTF v0.13.0","version":"2.0"},"bufferViews":[{"buffer":0,"byteLength":3456,"byteOffset":0,"target":34963},{"buffer":0,"byteLength":13968,"byteOffset":3456,"target":34962},{"buffer":0,"byteLength":13968,"byteOffset":17424,"target":34962},{"buffer":0,"byteLength":9312,"byteOffset":31392,"target":34962}],"buffers":[{"byteLength":40704,"uri":"Crystal_Orb.bin"}],"materials":[{"alphaMode":"OPAQUE","doubleSided":false,"extras":{"fromFBX":{"isTruePBR":false,"shadingModel":"Lambert"}},"name":"DefaultMaterial","pbrMetallicRoughness":{"baseColorFactor":[0.5,0.5,0.5,1],"metallicFactor":0.200000002980232,"roughnessFactor":0.800000011920929}}],"meshes":[{"name":"Crystal_Orb","primitives":[{"attributes":{"NORMAL":2,"POSITION":1,"TEXCOORD_0":3},"indices":0,"material":0,"mode":4}]}],"nodes":[{"mesh":0,"name":"Crystal_Orb","originalUnits":0.00999999977648258,"pivot":[0,0,0],"rotation":[0,0,0,1],"scale":[1,1,1],"translation":[0,0,0]}],"samplers":[{}],"scene":0,"scenes":[{"name":"Root Scene","nodes":[0]}]}