{"accessors":[{"bufferView":0,"byteOffset":0,"componentType":5123,"count":330,"type":"SCALAR"},{"bufferView":1,"byteOffset":0,"componentType":5126,"count":230,"max":[0.0301214903593063,0.261859536170959,0.0338256768882275],"min":[-0.03323251008987,-0.27954709529877,-0.02650808542967],"type":"VEC3"},{"bufferView":2,"byteOffset":0,"componentType":5126,"count":230,"type":"VEC3"},{"bufferView":3,"byteOffset":0,"componentType":5126,"count":230,"type":"VEC2"}],"asset":{"generator":"FBX2glTF v0.13.0","version":"2.0"},"bufferViews":[{"buffer":0,"byteLength":660,"byteOffset":0,"target":34963},{"buffer":0,"byteLength":2760,"byteOffset":660,"target":34962},{"buffer":0,"byteLength":2760,"byteOffset":3420,"target":34962},{"buffer":0,"byteLength":1840,"byteOffset":6180,"target":34962}],"buffers":[{"byteLength":8020,"uri":"Crystal_Wand.bin"}],"materials":[{"alphaMode":"OPAQUE","doubleSided":false,"extras":{"fromFBX":{"isTruePBR":false,"shadingModel":"Lambert"}},"name":"DefaultMaterial","pbrMetallicRoughness":{"baseColorFactor":[0.5,0.5,0.5,1],"metallicFactor":0.200000002980232,"roughnessFactor":0.800000011920929}}],"meshes":[{"name":"Crystal_Wand","primitives":[{"attributes":{"NORMAL":2,"POSITION":1,"TEXCOORD_0":3},"indices":0,"material":0,"mode":4}]}],"nodes":[{"mesh":0,"name":"Crystal_Wand","originalUnits":0.00999999977648258,"pivot":[0,0,0],"rotation":[0,0,0,1],"scale":[1,1,1],"translation":[0,0,0]}],"samplers":[{}],"scene":0,"scenes":[{"name":"Root Scene","nodes":[0]}]}