{"accessors":[{"bufferView":0,"byteOffset":0,"componentType":5123,"count":900,"type":"SCALAR"},{"bufferView":1,"byteOffset":0,"componentType":5126,"count":654,"max":[0.131722673773766,0.10467342287302,0.169415682554245],"min":[-0.12024649232626,0,-0.17097598314285],"type":"VEC3"},{"bufferView":2,"byteOffset":0,"componentType":5126,"count":654,"type":"VEC3"},{"bufferView":3,"byteOffset":0,"componentType":5126,"count":654,"type":"VEC2"}],"asset":{"generator":"FBX2glTF v0.13.0","version":"2.0"},"bufferViews":[{"buffer":0,"byteLength":1800,"byteOffset":0,"target":34963},{"buffer":0,"byteLength":7848,"byteOffset":1800,"target":34962},{"buffer":0,"byteLength":7848,"byteOffset":9648,"target":34962},{"buffer":0,"byteLength":5232,"byteOffset":17496,"target":34962}],"buffers":[{"byteLength":22728,"uri":"Dark_Spellbook.bin"}],"materials":[{"alphaMode":"OPAQUE","doubleSided":false,"extras":{"fromFBX":{"isTruePBR":false,"shadingModel":"Lambert"}},"name":"DefaultMaterial","pbrMetallicRoughness":{"baseColorFactor":[0.5,0.5,0.5,1],"metallicFactor":0.200000002980232,"roughnessFactor":0.800000011920929}}],"meshes":[{"name":"Dark_Spellbook","primitives":[{"attributes":{"NORMAL":2,"POSITION":1,"TEXCOORD_0":3},"indices":0,"material":0,"mode":4}]}],"nodes":[{"mesh":0,"name":"Dark_Spellbook","originalUnits":0.00999999977648258,"pivot":[0,0,0],"rotation":[0,0,0,1],"scale":[1,1,1],"translation":[0,0,0]}],"samplers":[{}],"scene":0,"scenes":[{"name":"Root Scene","nodes":[0]}]}