{"accessors":[{"bufferView":0,"byteOffset":0,"componentType":5123,"count":1896,"type":"SCALAR"},{"bufferView":1,"byteOffset":0,"componentType":5126,"count":1304,"max":[0.193456619977951,0.0981168746948242,0.0540109612047672],"min":[-0.19345661997795,0,-0.0537638887763],"type":"VEC3"},{"bufferView":2,"byteOffset":0,"componentType":5126,"count":1304,"type":"VEC3"},{"bufferView":3,"byteOffset":0,"componentType":5126,"count":1304,"type":"VEC2"}],"asset":{"generator":"FBX2glTF v0.13.0","version":"2.0"},"bufferViews":[{"buffer":0,"byteLength":3792,"byteOffset":0,"target":34963},{"buffer":0,"byteLength":15648,"byteOffset":3792,"target":34962},{"buffer":0,"byteLength":15648,"byteOffset":19440,"target":34962},{"buffer":0,"byteLength":10432,"byteOffset":35088,"target":34962}],"buffers":[{"byteLength":45520,"uri":"Earth_Scroll.bin"}],"materials":[{"alphaMode":"OPAQUE","doubleSided":false,"extras":{"fromFBX":{"isTruePBR":false,"shadingModel":"Lambert"}},"name":"DefaultMaterial","pbrMetallicRoughness":{"baseColorFactor":[0.5,0.5,0.5,1],"metallicFactor":0.200000002980232,"roughnessFactor":0.800000011920929}}],"meshes":[{"name":"Earth_Scroll","primitives":[{"attributes":{"NORMAL":2,"POSITION":1,"TEXCOORD_0":3},"indices":0,"material":0,"mode":4}]}],"nodes":[{"mesh":0,"name":"Earth_Scroll","originalUnits":0.00999999977648258,"pivot":[0,0,0],"rotation":[0,0,0,1],"scale":[1,1,1],"translation":[0,0,0]}],"samplers":[{}],"scene":0,"scenes":[{"name":"Root Scene","nodes":[0]}]}