{"accessors":[{"bufferView":0,"byteOffset":0,"componentType":5123,"count":1794,"type":"SCALAR"},{"bufferView":1,"byteOffset":0,"componentType":5126,"count":1194,"max":[0.135056689381599,0.10337632894516,0.161737263202667],"min":[-0.12140026688576,-0.00000799447298,-0.16000713407993],"type":"VEC3"},{"bufferView":2,"byteOffset":0,"componentType":5126,"count":1194,"type":"VEC3"},{"bufferView":3,"byteOffset":0,"componentType":5126,"count":1194,"type":"VEC2"}],"asset":{"generator":"FBX2glTF v0.13.0","version":"2.0"},"bufferViews":[{"buffer":0,"byteLength":3588,"byteOffset":0,"target":34963},{"buffer":0,"byteLength":14328,"byteOffset":3588,"target":34962},{"buffer":0,"byteLength":14328,"byteOffset":17916,"target":34962},{"buffer":0,"byteLength":9552,"byteOffset":32244,"target":34962}],"buffers":[{"byteLength":41796,"uri":"Enchanted_Spellbook.bin"}],"materials":[{"alphaMode":"OPAQUE","doubleSided":false,"extras":{"fromFBX":{"isTruePBR":false,"shadingModel":"Lambert"}},"name":"DefaultMaterial","pbrMetallicRoughness":{"baseColorFactor":[0.5,0.5,0.5,1],"metallicFactor":0.200000002980232,"roughnessFactor":0.800000011920929}}],"meshes":[{"name":"Enchanted_Spellbook","primitives":[{"attributes":{"NORMAL":2,"POSITION":1,"TEXCOORD_0":3},"indices":0,"material":0,"mode":4}]}],"nodes":[{"mesh":0,"name":"Enchanted_Spellbook","originalUnits":0.00999999977648258,"pivot":[0,0,0],"rotation":[0,0,0,1],"scale":[1,1,1],"translation":[0,0,0]}],"samplers":[{}],"scene":0,"scenes":[{"name":"Root Scene","nodes":[0]}]}