{"accessors":[{"bufferView":0,"byteOffset":0,"componentType":5123,"count":2310,"type":"SCALAR"},{"bufferView":1,"byteOffset":0,"componentType":5126,"count":1550,"max":[0.193456590175629,0.0981168746948242,0.0569758638739586],"min":[-0.19345670938492,0,-0.05079898238182],"type":"VEC3"},{"bufferView":2,"byteOffset":0,"componentType":5126,"count":1550,"type":"VEC3"},{"bufferView":3,"byteOffset":0,"componentType":5126,"count":1550,"type":"VEC2"}],"asset":{"generator":"FBX2glTF v0.13.0","version":"2.0"},"bufferViews":[{"buffer":0,"byteLength":4620,"byteOffset":0,"target":34963},{"buffer":0,"byteLength":18600,"byteOffset":4620,"target":34962},{"buffer":0,"byteLength":18600,"byteOffset":23220,"target":34962},{"buffer":0,"byteLength":12400,"byteOffset":41820,"target":34962}],"buffers":[{"byteLength":54220,"uri":"Fire_Scroll.bin"}],"materials":[{"alphaMode":"OPAQUE","doubleSided":false,"extras":{"fromFBX":{"isTruePBR":false,"shadingModel":"Lambert"}},"name":"DefaultMaterial","pbrMetallicRoughness":{"baseColorFactor":[0.5,0.5,0.5,1],"metallicFactor":0.200000002980232,"roughnessFactor":0.800000011920929}}],"meshes":[{"name":"Fire_Scroll","primitives":[{"attributes":{"NORMAL":2,"POSITION":1,"TEXCOORD_0":3},"indices":0,"material":0,"mode":4}]}],"nodes":[{"mesh":0,"name":"Fire_Scroll","originalUnits":0.00999999977648258,"pivot":[0,0,0],"rotation":[0,0,0,1],"scale":[1,1,1],"translation":[0,0,0]}],"samplers":[{}],"scene":0,"scenes":[{"name":"Root Scene","nodes":[0]}]}