{"accessors":[{"bufferView":0,"byteOffset":0,"componentType":5123,"count":672,"type":"SCALAR"},{"bufferView":1,"byteOffset":0,"componentType":5126,"count":464,"max":[0.108436912298203,0.262528777122498,0.108436912298203],"min":[-0.1084369122982,-0.00162381806877,-0.1084369122982],"type":"VEC3"},{"bufferView":2,"byteOffset":0,"componentType":5126,"count":464,"type":"VEC3"},{"bufferView":3,"byteOffset":0,"componentType":5126,"count":464,"type":"VEC2"},{"bufferView":4,"byteOffset":0,"componentType":5123,"count":552,"type":"SCALAR"},{"bufferView":5,"byteOffset":0,"componentType":5126,"count":392,"max":[0.0972329005599022,0.2946397960186,0.0972329005599022],"min":[-0.0972329005599,0.00160354247782379,-0.0972329005599],"type":"VEC3"},{"bufferView":6,"byteOffset":0,"componentType":5126,"count":392,"type":"VEC3"},{"bufferView":7,"byteOffset":0,"componentType":5126,"count":392,"type":"VEC2"}],"asset":{"generator":"FBX2glTF v0.13.0","version":"2.0"},"bufferViews":[{"buffer":0,"byteLength":1344,"byteOffset":0,"target":34963},{"buffer":0,"byteLength":5568,"byteOffset":1344,"target":34962},{"buffer":0,"byteLength":5568,"byteOffset":6912,"target":34962},{"buffer":0,"byteLength":3712,"byteOffset":12480,"target":34962},{"buffer":0,"byteLength":1104,"byteOffset":16192,"target":34963},{"buffer":0,"byteLength":4704,"byteOffset":17296,"target":34962},{"buffer":0,"byteLength":4704,"byteOffset":22000,"target":34962},{"buffer":0,"byteLength":3136,"byteOffset":26704,"target":34962}],"buffers":[{"byteLength":29840,"uri":"Flask_of_Elixir.bin"}],"images":[{"name":"Palette-Colour","uri":"../Textures/Palette-Colour.png"}],"materials":[{"alphaMode":"OPAQUE","doubleSided":false,"extras":{"fromFBX":{"isTruePBR":false,"shadingModel":"Phong"}},"name":"ArcaneAccessoriesAlpha","pbrMetallicRoughness":{"baseColorFactor":[1,1,1,0.840000033378601],"baseColorTexture":{"index":0,"texCoord":0},"metallicFactor":0.400000005960464,"roughnessFactor":0.577350318431854}},{"alphaMode":"OPAQUE","doubleSided":false,"extras":{"fromFBX":{"isTruePBR":false,"shadingModel":"Phong"}},"name":"ArcaneAccessories","pbrMetallicRoughness":{"baseColorFactor":[1,1,1,1],"baseColorTexture":{"index":0,"texCoord":0},"metallicFactor":0.400000005960464,"roughnessFactor":0.577350318431854}}],"meshes":[{"name":"Flask_of_Elixir","primitives":[{"attributes":{"NORMAL":2,"POSITION":1,"TEXCOORD_0":3},"indices":0,"material":0,"mode":4},{"attributes":{"NORMAL":6,"POSITION":5,"TEXCOORD_0":7},"indices":4,"material":1,"mode":4}]}],"nodes":[{"mesh":0,"name":"Flask_of_Elixir","originalUnits":0.00999999977648258,"pivot":[0,0,0],"rotation":[0,0,0,1],"scale":[1,1,1],"translation":[0,0,0]}],"samplers":[{}],"scene":0,"scenes":[{"name":"Root Scene","nodes":[0]}],"textures":[{"name":"base_color_texture","sampler":0,"source":0}]}