{"accessors":[{"bufferView":0,"byteOffset":0,"componentType":5123,"count":786,"type":"SCALAR"},{"bufferView":1,"byteOffset":0,"componentType":5126,"count":614,"max":[0.116757936775684,0.0850684121251106,0.151128739118576],"min":[-0.10430824011564,-0.00001265108585,-0.15134283900261],"type":"VEC3"},{"bufferView":2,"byteOffset":0,"componentType":5126,"count":614,"type":"VEC3"},{"bufferView":3,"byteOffset":0,"componentType":5126,"count":614,"type":"VEC2"}],"asset":{"generator":"FBX2glTF v0.13.0","version":"2.0"},"bufferViews":[{"buffer":0,"byteLength":1572,"byteOffset":0,"target":34963},{"buffer":0,"byteLength":7368,"byteOffset":1572,"target":34962},{"buffer":0,"byteLength":7368,"byteOffset":8940,"target":34962},{"buffer":0,"byteLength":4912,"byteOffset":16308,"target":34962}],"buffers":[{"byteLength":21220,"uri":"Herbal_Spellbook.bin"}],"materials":[{"alphaMode":"OPAQUE","doubleSided":false,"extras":{"fromFBX":{"isTruePBR":false,"shadingModel":"Lambert"}},"name":"DefaultMaterial","pbrMetallicRoughness":{"baseColorFactor":[0.5,0.5,0.5,1],"metallicFactor":0.200000002980232,"roughnessFactor":0.800000011920929}}],"meshes":[{"name":"Herbal_Spellbook","primitives":[{"attributes":{"NORMAL":2,"POSITION":1,"TEXCOORD_0":3},"indices":0,"material":0,"mode":4}]}],"nodes":[{"mesh":0,"name":"Herbal_Spellbook","originalUnits":0.00999999977648258,"pivot":[0,0,0],"rotation":[0,0,0,1],"scale":[1,1,1],"translation":[0,0,0]}],"samplers":[{}],"scene":0,"scenes":[{"name":"Root Scene","nodes":[0]}]}