{"accessors":[{"bufferView":0,"byteOffset":0,"componentType":5123,"count":60,"type":"SCALAR"},{"bufferView":1,"byteOffset":0,"componentType":5126,"count":50,"max":[0.0156805906444788,0.452823758125305,0.0161478761583567],"min":[-0.01478611212224,-0.06682036072016,-0.01306394301355],"type":"VEC3"},{"bufferView":2,"byteOffset":0,"componentType":5126,"count":50,"type":"VEC3"},{"bufferView":3,"byteOffset":0,"componentType":5126,"count":50,"type":"VEC2"}],"asset":{"generator":"FBX2glTF v0.13.0","version":"2.0"},"bufferViews":[{"buffer":0,"byteLength":120,"byteOffset":0,"target":34963},{"buffer":0,"byteLength":600,"byteOffset":120,"target":34962},{"buffer":0,"byteLength":600,"byteOffset":720,"target":34962},{"buffer":0,"byteLength":400,"byteOffset":1320,"target":34962}],"buffers":[{"byteLength":1720,"uri":"Metal_Wand.bin"}],"materials":[{"alphaMode":"OPAQUE","doubleSided":false,"extras":{"fromFBX":{"isTruePBR":false,"shadingModel":"Lambert"}},"name":"DefaultMaterial","pbrMetallicRoughness":{"baseColorFactor":[0.5,0.5,0.5,1],"metallicFactor":0.200000002980232,"roughnessFactor":0.800000011920929}}],"meshes":[{"name":"Metal_Wand","primitives":[{"attributes":{"NORMAL":2,"POSITION":1,"TEXCOORD_0":3},"indices":0,"material":0,"mode":4}]}],"nodes":[{"mesh":0,"name":"Metal_Wand","originalUnits":0.00999999977648258,"pivot":[0,0,0],"rotation":[0,0,0,1],"scale":[1,1,1],"translation":[0,0,0]}],"samplers":[{}],"scene":0,"scenes":[{"name":"Root Scene","nodes":[0]}]}