{"accessors":[{"bufferView":0,"byteOffset":0,"componentType":5123,"count":390,"type":"SCALAR"},{"bufferView":1,"byteOffset":0,"componentType":5126,"count":278,"max":[0.0127393407747149,0.0220964848995209,0.00455847522243857],"min":[-0.01273934077471,-0.01199290249497,-0.00432789744809],"type":"VEC3"},{"bufferView":2,"byteOffset":0,"componentType":5126,"count":278,"type":"VEC3"},{"bufferView":3,"byteOffset":0,"componentType":5126,"count":278,"type":"VEC2"}],"asset":{"generator":"FBX2glTF v0.13.0","version":"2.0"},"bufferViews":[{"buffer":0,"byteLength":780,"byteOffset":0,"target":34963},{"buffer":0,"byteLength":3336,"byteOffset":780,"target":34962},{"buffer":0,"byteLength":3336,"byteOffset":4116,"target":34962},{"buffer":0,"byteLength":2224,"byteOffset":7452,"target":34962}],"buffers":[{"byteLength":9676,"uri":"Ring_with_Gem.bin"}],"materials":[{"alphaMode":"OPAQUE","doubleSided":false,"extras":{"fromFBX":{"isTruePBR":false,"shadingModel":"Lambert"}},"name":"DefaultMaterial","pbrMetallicRoughness":{"baseColorFactor":[0.5,0.5,0.5,1],"metallicFactor":0.200000002980232,"roughnessFactor":0.800000011920929}}],"meshes":[{"name":"Ring_with_Gem","primitives":[{"attributes":{"NORMAL":2,"POSITION":1,"TEXCOORD_0":3},"indices":0,"material":0,"mode":4}]}],"nodes":[{"mesh":0,"name":"Ring_with_Gem","originalUnits":0.00999999977648258,"pivot":[0,0,0],"rotation":[0,0,0,1],"scale":[1,1,1],"translation":[0,0,0]}],"samplers":[{}],"scene":0,"scenes":[{"name":"Root Scene","nodes":[0]}]}