{"accessors":[{"bufferView":0,"byteOffset":0,"componentType":5123,"count":1290,"type":"SCALAR"},{"bufferView":1,"byteOffset":0,"componentType":5126,"count":946,"max":[0.30747663974762,0.474331259727478,0.288276880979538],"min":[-0.30990901589394,0,-0.22054667770863],"type":"VEC3"},{"bufferView":2,"byteOffset":0,"componentType":5126,"count":946,"type":"VEC3"},{"bufferView":3,"byteOffset":0,"componentType":5126,"count":946,"type":"VEC2"}],"asset":{"generator":"FBX2glTF v0.13.0","version":"2.0"},"bufferViews":[{"buffer":0,"byteLength":2580,"byteOffset":0,"target":34963},{"buffer":0,"byteLength":11352,"byteOffset":2580,"target":34962},{"buffer":0,"byteLength":11352,"byteOffset":13932,"target":34962},{"buffer":0,"byteLength":7568,"byteOffset":25284,"target":34962}],"buffers":[{"byteLength":32852,"uri":"Skull_Animal_01.bin"}],"materials":[{"alphaMode":"OPAQUE","doubleSided":false,"extras":{"fromFBX":{"isTruePBR":false,"shadingModel":"Lambert"}},"name":"DefaultMaterial","pbrMetallicRoughness":{"baseColorFactor":[0.5,0.5,0.5,1],"metallicFactor":0.200000002980232,"roughnessFactor":0.800000011920929}}],"meshes":[{"name":"Skull_Animal_01","primitives":[{"attributes":{"NORMAL":2,"POSITION":1,"TEXCOORD_0":3},"indices":0,"material":0,"mode":4}]}],"nodes":[{"mesh":0,"name":"Skull_Animal_01","originalUnits":0.00999999977648258,"pivot":[0,0,0],"rotation":[0,0,0,1],"scale":[1,1,1],"translation":[0,0,0]}],"samplers":[{}],"scene":0,"scenes":[{"name":"Root Scene","nodes":[0]}]}