{"accessors":[{"bufferView":0,"byteOffset":0,"componentType":5123,"count":990,"type":"SCALAR"},{"bufferView":1,"byteOffset":0,"componentType":5126,"count":686,"max":[0.0895981267094612,0.204694673418999,0.0740388482809067],"min":[-0.0895981490612,-0.00108689814806,-0.13853785395622],"type":"VEC3"},{"bufferView":2,"byteOffset":0,"componentType":5126,"count":686,"type":"VEC3"},{"bufferView":3,"byteOffset":0,"componentType":5126,"count":686,"type":"VEC2"}],"asset":{"generator":"FBX2glTF v0.13.0","version":"2.0"},"bufferViews":[{"buffer":0,"byteLength":1980,"byteOffset":0,"target":34963},{"buffer":0,"byteLength":8232,"byteOffset":1980,"target":34962},{"buffer":0,"byteLength":8232,"byteOffset":10212,"target":34962},{"buffer":0,"byteLength":5488,"byteOffset":18444,"target":34962}],"buffers":[{"byteLength":23932,"uri":"Skull_Human_02.bin"}],"materials":[{"alphaMode":"OPAQUE","doubleSided":false,"extras":{"fromFBX":{"isTruePBR":false,"shadingModel":"Lambert"}},"name":"DefaultMaterial","pbrMetallicRoughness":{"baseColorFactor":[0.5,0.5,0.5,1],"metallicFactor":0.200000002980232,"roughnessFactor":0.800000011920929}}],"meshes":[{"name":"Skull_Human_02","primitives":[{"attributes":{"NORMAL":2,"POSITION":1,"TEXCOORD_0":3},"indices":0,"material":0,"mode":4}]}],"nodes":[{"mesh":0,"name":"Skull_Human_02","originalUnits":0.00999999977648258,"pivot":[0,0,0],"rotation":[0,0,0,1],"scale":[1,1,1],"translation":[0,0,0]}],"samplers":[{}],"scene":0,"scenes":[{"name":"Root Scene","nodes":[0]}]}