{"accessors":[{"bufferView":0,"byteOffset":0,"componentType":5123,"count":1014,"type":"SCALAR"},{"bufferView":1,"byteOffset":0,"componentType":5126,"count":710,"max":[0.0919024646282196,0.204767376184464,0.0745878368616104],"min":[-0.09193414449692,-0.00113132596016,-0.13798886537552],"type":"VEC3"},{"bufferView":2,"byteOffset":0,"componentType":5126,"count":710,"type":"VEC3"},{"bufferView":3,"byteOffset":0,"componentType":5126,"count":710,"type":"VEC2"}],"asset":{"generator":"FBX2glTF v0.13.0","version":"2.0"},"bufferViews":[{"buffer":0,"byteLength":2028,"byteOffset":0,"target":34963},{"buffer":0,"byteLength":8520,"byteOffset":2028,"target":34962},{"buffer":0,"byteLength":8520,"byteOffset":10548,"target":34962},{"buffer":0,"byteLength":5680,"byteOffset":19068,"target":34962}],"buffers":[{"byteLength":24748,"uri":"Skull_Human_03.bin"}],"materials":[{"alphaMode":"OPAQUE","doubleSided":false,"extras":{"fromFBX":{"isTruePBR":false,"shadingModel":"Lambert"}},"name":"DefaultMaterial","pbrMetallicRoughness":{"baseColorFactor":[0.5,0.5,0.5,1],"metallicFactor":0.200000002980232,"roughnessFactor":0.800000011920929}}],"meshes":[{"name":"Skull_Human_03","primitives":[{"attributes":{"NORMAL":2,"POSITION":1,"TEXCOORD_0":3},"indices":0,"material":0,"mode":4}]}],"nodes":[{"mesh":0,"name":"Skull_Human_03","originalUnits":0.00999999977648258,"pivot":[0,0,0],"rotation":[0,0,0,1],"scale":[1,1,1],"translation":[0,0,0]}],"samplers":[{}],"scene":0,"scenes":[{"name":"Root Scene","nodes":[0]}]}