{"accessors":[{"bufferView":0,"byteOffset":0,"componentType":5123,"count":1032,"type":"SCALAR"},{"bufferView":1,"byteOffset":0,"componentType":5126,"count":730,"max":[0.264574557542801,0.514973759651184,0.247983545064926],"min":[-0.26032847166061,-0.00125939422287,-0.17447412014008],"type":"VEC3"},{"bufferView":2,"byteOffset":0,"componentType":5126,"count":730,"type":"VEC3"},{"bufferView":3,"byteOffset":0,"componentType":5126,"count":730,"type":"VEC2"}],"asset":{"generator":"FBX2glTF v0.13.0","version":"2.0"},"bufferViews":[{"buffer":0,"byteLength":2064,"byteOffset":0,"target":34963},{"buffer":0,"byteLength":8760,"byteOffset":2064,"target":34962},{"buffer":0,"byteLength":8760,"byteOffset":10824,"target":34962},{"buffer":0,"byteLength":5840,"byteOffset":19584,"target":34962}],"buffers":[{"byteLength":25424,"uri":"Skull_Animal_02.bin"}],"materials":[{"alphaMode":"OPAQUE","doubleSided":false,"extras":{"fromFBX":{"isTruePBR":false,"shadingModel":"Lambert"}},"name":"DefaultMaterial","pbrMetallicRoughness":{"baseColorFactor":[0.5,0.5,0.5,1],"metallicFactor":0.200000002980232,"roughnessFactor":0.800000011920929}}],"meshes":[{"name":"Skull_Animal_02","primitives":[{"attributes":{"NORMAL":2,"POSITION":1,"TEXCOORD_0":3},"indices":0,"material":0,"mode":4}]}],"nodes":[{"mesh":0,"name":"Skull_Animal_02","originalUnits":0.00999999977648258,"pivot":[0,0,0],"rotation":[0,0,0,1],"scale":[1,1,1],"translation":[0,0,0]}],"samplers":[{}],"scene":0,"scenes":[{"name":"Root Scene","nodes":[0]}]}