{"accessors":[{"bufferView":0,"byteOffset":0,"componentType":5123,"count":750,"type":"SCALAR"},{"bufferView":1,"byteOffset":0,"componentType":5126,"count":542,"max":[0.0897120535373688,0.186400219798088,0.0706500113010406],"min":[-0.08948421478271,0,-0.14192669093609],"type":"VEC3"},{"bufferView":2,"byteOffset":0,"componentType":5126,"count":542,"type":"VEC3"},{"bufferView":3,"byteOffset":0,"componentType":5126,"count":542,"type":"VEC2"}],"asset":{"generator":"FBX2glTF v0.13.0","version":"2.0"},"bufferViews":[{"buffer":0,"byteLength":1500,"byteOffset":0,"target":34963},{"buffer":0,"byteLength":6504,"byteOffset":1500,"target":34962},{"buffer":0,"byteLength":6504,"byteOffset":8004,"target":34962},{"buffer":0,"byteLength":4336,"byteOffset":14508,"target":34962}],"buffers":[{"byteLength":18844,"uri":"Skull_Human_04.bin"}],"materials":[{"alphaMode":"OPAQUE","doubleSided":false,"extras":{"fromFBX":{"isTruePBR":false,"shadingModel":"Lambert"}},"name":"DefaultMaterial","pbrMetallicRoughness":{"baseColorFactor":[0.5,0.5,0.5,1],"metallicFactor":0.200000002980232,"roughnessFactor":0.800000011920929}}],"meshes":[{"name":"Skull_Human_04","primitives":[{"attributes":{"NORMAL":2,"POSITION":1,"TEXCOORD_0":3},"indices":0,"material":0,"mode":4}]}],"nodes":[{"mesh":0,"name":"Skull_Human_04","originalUnits":0.00999999977648258,"pivot":[0,0,0],"rotation":[0,0,0,1],"scale":[1,1,1],"translation":[0,0,0]}],"samplers":[{}],"scene":0,"scenes":[{"name":"Root Scene","nodes":[0]}]}