{"accessors":[{"bufferView":0,"byteOffset":0,"componentType":5123,"count":1104,"type":"SCALAR"},{"bufferView":1,"byteOffset":0,"componentType":5126,"count":782,"max":[0.311609923839569,0.451860725879669,0.265826761722565],"min":[-0.32830566167831,0,-0.19421808421612],"type":"VEC3"},{"bufferView":2,"byteOffset":0,"componentType":5126,"count":782,"type":"VEC3"},{"bufferView":3,"byteOffset":0,"componentType":5126,"count":782,"type":"VEC2"}],"asset":{"generator":"FBX2glTF v0.13.0","version":"2.0"},"bufferViews":[{"buffer":0,"byteLength":2208,"byteOffset":0,"target":34963},{"buffer":0,"byteLength":9384,"byteOffset":2208,"target":34962},{"buffer":0,"byteLength":9384,"byteOffset":11592,"target":34962},{"buffer":0,"byteLength":6256,"byteOffset":20976,"target":34962}],"buffers":[{"byteLength":27232,"uri":"Skull_Animal_03.bin"}],"materials":[{"alphaMode":"OPAQUE","doubleSided":false,"extras":{"fromFBX":{"isTruePBR":false,"shadingModel":"Lambert"}},"name":"DefaultMaterial","pbrMetallicRoughness":{"baseColorFactor":[0.5,0.5,0.5,1],"metallicFactor":0.200000002980232,"roughnessFactor":0.800000011920929}}],"meshes":[{"name":"Skull_Animal_03","primitives":[{"attributes":{"NORMAL":2,"POSITION":1,"TEXCOORD_0":3},"indices":0,"material":0,"mode":4}]}],"nodes":[{"mesh":0,"name":"Skull_Animal_03","originalUnits":0.00999999977648258,"pivot":[0,0,0],"rotation":[0,0,0,1],"scale":[1,1,1],"translation":[0,0,0]}],"samplers":[{}],"scene":0,"scenes":[{"name":"Root Scene","nodes":[0]}]}