{"accessors":[{"bufferView":0,"byteOffset":0,"componentType":5123,"count":2193,"type":"SCALAR"},{"bufferView":1,"byteOffset":0,"componentType":5126,"count":1513,"max":[0.0883650481700897,0.220078215003014,0.0572801046073437],"min":[-0.08811976015568,-0.00090746581554,-0.15608215332031],"type":"VEC3"},{"bufferView":2,"byteOffset":0,"componentType":5126,"count":1513,"type":"VEC3"},{"bufferView":3,"byteOffset":0,"componentType":5126,"count":1513,"type":"VEC2"}],"asset":{"generator":"FBX2glTF v0.13.0","version":"2.0"},"bufferViews":[{"buffer":0,"byteLength":4386,"byteOffset":0,"target":34963},{"buffer":0,"byteLength":18156,"byteOffset":4388,"target":34962},{"buffer":0,"byteLength":18156,"byteOffset":22544,"target":34962},{"buffer":0,"byteLength":12104,"byteOffset":40700,"target":34962}],"buffers":[{"byteLength":52804,"uri":"Skull_Human_01.bin"}],"materials":[{"alphaMode":"OPAQUE","doubleSided":false,"extras":{"fromFBX":{"isTruePBR":false,"shadingModel":"Lambert"}},"name":"DefaultMaterial","pbrMetallicRoughness":{"baseColorFactor":[0.5,0.5,0.5,1],"metallicFactor":0.200000002980232,"roughnessFactor":0.800000011920929}}],"meshes":[{"name":"Skull_Human_01","primitives":[{"attributes":{"NORMAL":2,"POSITION":1,"TEXCOORD_0":3},"indices":0,"material":0,"mode":4}]}],"nodes":[{"mesh":0,"name":"Skull_Human_01","originalUnits":0.00999999977648258,"pivot":[0,0,0],"rotation":[0,0,0,1],"scale":[1,1,1],"translation":[0,0,0]}],"samplers":[{}],"scene":0,"scenes":[{"name":"Root Scene","nodes":[0]}]}