{"accessors":[{"bufferView":0,"byteOffset":0,"componentType":5123,"count":696,"type":"SCALAR"},{"bufferView":1,"byteOffset":0,"componentType":5126,"count":472,"max":[0.104580961167812,0.304723739624023,0.101483598351479],"min":[-0.10458096861839,-0.00092703819973,-0.10148359835148],"type":"VEC3"},{"bufferView":2,"byteOffset":0,"componentType":5126,"count":472,"type":"VEC3"},{"bufferView":3,"byteOffset":0,"componentType":5126,"count":472,"type":"VEC2"},{"bufferView":4,"byteOffset":0,"componentType":5123,"count":456,"type":"SCALAR"},{"bufferView":5,"byteOffset":0,"componentType":5126,"count":328,"max":[0.0916735827922821,0.354362517595291,0.088559128344059],"min":[-0.09167359024286,0.0123463496565819,-0.08855913579464],"type":"VEC3"},{"bufferView":6,"byteOffset":0,"componentType":5126,"count":328,"type":"VEC3"},{"bufferView":7,"byteOffset":0,"componentType":5126,"count":328,"type":"VEC2"}],"asset":{"generator":"FBX2glTF v0.13.0","version":"2.0"},"bufferViews":[{"buffer":0,"byteLength":1392,"byteOffset":0,"target":34963},{"buffer":0,"byteLength":5664,"byteOffset":1392,"target":34962},{"buffer":0,"byteLength":5664,"byteOffset":7056,"target":34962},{"buffer":0,"byteLength":3776,"byteOffset":12720,"target":34962},{"buffer":0,"byteLength":912,"byteOffset":16496,"target":34963},{"buffer":0,"byteLength":3936,"byteOffset":17408,"target":34962},{"buffer":0,"byteLength":3936,"byteOffset":21344,"target":34962},{"buffer":0,"byteLength":2624,"byteOffset":25280,"target":34962}],"buffers":[{"byteLength":27904,"uri":"Small_Potion_Bottle.bin"}],"images":[{"name":"Palette-Colour","uri":"../Textures/Palette-Colour.png"}],"materials":[{"alphaMode":"OPAQUE","doubleSided":false,"extras":{"fromFBX":{"isTruePBR":false,"shadingModel":"Phong"}},"name":"ArcaneAccessoriesAlpha","pbrMetallicRoughness":{"baseColorFactor":[1,1,1,0.840000033378601],"baseColorTexture":{"index":0,"texCoord":0},"metallicFactor":0.400000005960464,"roughnessFactor":0.577350318431854}},{"alphaMode":"OPAQUE","doubleSided":false,"extras":{"fromFBX":{"isTruePBR":false,"shadingModel":"Phong"}},"name":"ArcaneAccessories","pbrMetallicRoughness":{"baseColorFactor":[1,1,1,1],"baseColorTexture":{"index":0,"texCoord":0},"metallicFactor":0.400000005960464,"roughnessFactor":0.577350318431854}}],"meshes":[{"name":"Small_Potion_Bottle","primitives":[{"attributes":{"NORMAL":2,"POSITION":1,"TEXCOORD_0":3},"indices":0,"material":0,"mode":4},{"attributes":{"NORMAL":6,"POSITION":5,"TEXCOORD_0":7},"indices":4,"material":1,"mode":4}]}],"nodes":[{"mesh":0,"name":"Small_Potion_Bottle","originalUnits":0.00999999977648258,"pivot":[0,0,0],"rotation":[0,0,0,1],"scale":[1,1,1],"translation":[0,0,0]}],"samplers":[{}],"scene":0,"scenes":[{"name":"Root Scene","nodes":[0]}],"textures":[{"name":"base_color_texture","sampler":0,"source":0}]}