{"accessors":[{"bufferView":0,"byteOffset":0,"componentType":5123,"count":498,"type":"SCALAR"},{"bufferView":1,"byteOffset":0,"componentType":5126,"count":350,"max":[0.13099405169487,0.0901062488555908,0.153980776667595],"min":[-0.1139942035079,0,-0.15691393613815],"type":"VEC3"},{"bufferView":2,"byteOffset":0,"componentType":5126,"count":350,"type":"VEC3"},{"bufferView":3,"byteOffset":0,"componentType":5126,"count":350,"type":"VEC2"}],"asset":{"generator":"FBX2glTF v0.13.0","version":"2.0"},"bufferViews":[{"buffer":0,"byteLength":996,"byteOffset":0,"target":34963},{"buffer":0,"byteLength":4200,"byteOffset":996,"target":34962},{"buffer":0,"byteLength":4200,"byteOffset":5196,"target":34962},{"buffer":0,"byteLength":2800,"byteOffset":9396,"target":34962}],"buffers":[{"byteLength":12196,"uri":"Spellbook_Earth.bin"}],"materials":[{"alphaMode":"OPAQUE","doubleSided":false,"extras":{"fromFBX":{"isTruePBR":false,"shadingModel":"Lambert"}},"name":"DefaultMaterial","pbrMetallicRoughness":{"baseColorFactor":[0.5,0.5,0.5,1],"metallicFactor":0.200000002980232,"roughnessFactor":0.800000011920929}}],"meshes":[{"name":"Spellbook_Earth","primitives":[{"attributes":{"NORMAL":2,"POSITION":1,"TEXCOORD_0":3},"indices":0,"material":0,"mode":4}]}],"nodes":[{"mesh":0,"name":"Spellbook_Earth","originalUnits":0.00999999977648258,"pivot":[0,0,0],"rotation":[0,0,0,1],"scale":[1,1,1],"translation":[0,0,0]}],"samplers":[{}],"scene":0,"scenes":[{"name":"Root Scene","nodes":[0]}]}