{"accessors":[{"bufferView":0,"byteOffset":0,"componentType":5123,"count":672,"type":"SCALAR"},{"bufferView":1,"byteOffset":0,"componentType":5126,"count":476,"max":[0.0884573608636856,0.558131694793701,0.0722522363066673],"min":[-0.08531235158443,-1.05420219898224,-0.07345551997423],"type":"VEC3"},{"bufferView":2,"byteOffset":0,"componentType":5126,"count":476,"type":"VEC3"},{"bufferView":3,"byteOffset":0,"componentType":5126,"count":476,"type":"VEC2"}],"asset":{"generator":"FBX2glTF v0.13.0","version":"2.0"},"bufferViews":[{"buffer":0,"byteLength":1344,"byteOffset":0,"target":34963},{"buffer":0,"byteLength":5712,"byteOffset":1344,"target":34962},{"buffer":0,"byteLength":5712,"byteOffset":7056,"target":34962},{"buffer":0,"byteLength":3808,"byteOffset":12768,"target":34962}],"buffers":[{"byteLength":16576,"uri":"Staff_With_Stone.bin"}],"materials":[{"alphaMode":"OPAQUE","doubleSided":false,"extras":{"fromFBX":{"isTruePBR":false,"shadingModel":"Lambert"}},"name":"DefaultMaterial","pbrMetallicRoughness":{"baseColorFactor":[0.5,0.5,0.5,1],"metallicFactor":0.200000002980232,"roughnessFactor":0.800000011920929}}],"meshes":[{"name":"Staff_With_Stone","primitives":[{"attributes":{"NORMAL":2,"POSITION":1,"TEXCOORD_0":3},"indices":0,"material":0,"mode":4}]}],"nodes":[{"mesh":0,"name":"Staff_With_Stone","originalUnits":0.00999999977648258,"pivot":[0,0,0],"rotation":[0,0,0,1],"scale":[1,1,1],"translation":[0,0,0]}],"samplers":[{}],"scene":0,"scenes":[{"name":"Root Scene","nodes":[0]}]}