{"accessors":[{"bufferView":0,"byteOffset":0,"componentType":5123,"count":336,"type":"SCALAR"},{"bufferView":1,"byteOffset":0,"componentType":5126,"count":248,"max":[0.03580192476511,0.36943706870079,0.03580192476511],"min":[-0.03580192476511,0.00154664961155504,-0.03580192476511],"type":"VEC3"},{"bufferView":2,"byteOffset":0,"componentType":5126,"count":248,"type":"VEC3"},{"bufferView":3,"byteOffset":0,"componentType":5126,"count":248,"type":"VEC2"},{"bufferView":4,"byteOffset":0,"componentType":5123,"count":33,"type":"SCALAR"},{"bufferView":5,"byteOffset":0,"componentType":5126,"count":25,"max":[0.0286500547081232,0.227226197719574,0.0286507308483124],"min":[-0.02863069437444,0.00488722650334239,-0.02865073084831],"type":"VEC3"},{"bufferView":6,"byteOffset":0,"componentType":5126,"count":25,"type":"VEC3"},{"bufferView":7,"byteOffset":0,"componentType":5126,"count":25,"type":"VEC2"}],"asset":{"generator":"FBX2glTF v0.13.0","version":"2.0"},"bufferViews":[{"buffer":0,"byteLength":672,"byteOffset":0,"target":34963},{"buffer":0,"byteLength":2976,"byteOffset":672,"target":34962},{"buffer":0,"byteLength":2976,"byteOffset":3648,"target":34962},{"buffer":0,"byteLength":1984,"byteOffset":6624,"target":34962},{"buffer":0,"byteLength":66,"byteOffset":8608,"target":34963},{"buffer":0,"byteLength":300,"byteOffset":8676,"target":34962},{"buffer":0,"byteLength":300,"byteOffset":8976,"target":34962},{"buffer":0,"byteLength":200,"byteOffset":9276,"target":34962}],"buffers":[{"byteLength":9476,"uri":"Tall_Potion_Vial.bin"}],"images":[{"name":"Palette-Colour","uri":"../textures/Palette-Colour.png"}],"materials":[{"alphaMode":"OPAQUE","doubleSided":false,"extras":{"fromFBX":{"isTruePBR":false,"shadingModel":"Phong"}},"name":"ArcaneAccessoriesAlpha","pbrMetallicRoughness":{"baseColorFactor":[1,1,1,0.840000033378601],"baseColorTexture":{"index":0,"texCoord":0},"metallicFactor":0.400000005960464,"roughnessFactor":0.577350318431854}},{"alphaMode":"OPAQUE","doubleSided":false,"emissiveFactor":[1,0.236899122595787,1],"extras":{"fromFBX":{"isTruePBR":false,"shadingModel":"Phong"}},"name":"M_Potions_Emission","pbrMetallicRoughness":{"baseColorFactor":[0.800000011920929,0.800000011920929,0.800000011920929,1],"metallicFactor":0.400000005960464,"roughnessFactor":0.577350318431854}}],"meshes":[{"name":"Tall_Potion_Vial","primitives":[{"attributes":{"NORMAL":2,"POSITION":1,"TEXCOORD_0":3},"indices":0,"material":0,"mode":4},{"attributes":{"NORMAL":6,"POSITION":5,"TEXCOORD_0":7},"indices":4,"material":1,"mode":4}]}],"nodes":[{"mesh":0,"name":"Tall_Potion_Vial","originalUnits":0.00999999977648258,"pivot":[0,0,0],"rotation":[0,0,0,1],"scale":[1,1,1],"translation":[0,0,0]}],"samplers":[{}],"scene":0,"scenes":[{"name":"Root Scene","nodes":[0]}],"textures":[{"name":"base_color_texture","sampler":0,"source":0}]}