{"accessors":[{"bufferView":0,"byteOffset":0,"componentType":5123,"count":2292,"type":"SCALAR"},{"bufferView":1,"byteOffset":0,"componentType":5126,"count":1558,"max":[0.193401530385017,0.0981168746948242,0.048477228730917],"min":[-0.19351175427437,0,-0.05929761752486],"type":"VEC3"},{"bufferView":2,"byteOffset":0,"componentType":5126,"count":1558,"type":"VEC3"},{"bufferView":3,"byteOffset":0,"componentType":5126,"count":1558,"type":"VEC2"}],"asset":{"generator":"FBX2glTF v0.13.0","version":"2.0"},"bufferViews":[{"buffer":0,"byteLength":4584,"byteOffset":0,"target":34963},{"buffer":0,"byteLength":18696,"byteOffset":4584,"target":34962},{"buffer":0,"byteLength":18696,"byteOffset":23280,"target":34962},{"buffer":0,"byteLength":12464,"byteOffset":41976,"target":34962}],"buffers":[{"byteLength":54440,"uri":"Water_Scroll.bin"}],"materials":[{"alphaMode":"OPAQUE","doubleSided":false,"extras":{"fromFBX":{"isTruePBR":false,"shadingModel":"Lambert"}},"name":"DefaultMaterial","pbrMetallicRoughness":{"baseColorFactor":[0.5,0.5,0.5,1],"metallicFactor":0.200000002980232,"roughnessFactor":0.800000011920929}}],"meshes":[{"name":"Water_Scroll","primitives":[{"attributes":{"NORMAL":2,"POSITION":1,"TEXCOORD_0":3},"indices":0,"material":0,"mode":4}]}],"nodes":[{"mesh":0,"name":"Water_Scroll","originalUnits":0.00999999977648258,"pivot":[0,0,0],"rotation":[0,0,0,1],"scale":[1,1,1],"translation":[0,0,0]}],"samplers":[{}],"scene":0,"scenes":[{"name":"Root Scene","nodes":[0]}]}