{"accessors":[{"bufferView":0,"byteOffset":0,"componentType":5123,"count":450,"type":"SCALAR"},{"bufferView":1,"byteOffset":0,"componentType":5126,"count":310,"max":[0.208614856004715,0.566605448722839,0.0499574355781078],"min":[-0.15304026007652,-1.19930410385132,-0.05948952957988],"type":"VEC3"},{"bufferView":2,"byteOffset":0,"componentType":5126,"count":310,"type":"VEC3"},{"bufferView":3,"byteOffset":0,"componentType":5126,"count":310,"type":"VEC2"}],"asset":{"generator":"FBX2glTF v0.13.0","version":"2.0"},"bufferViews":[{"buffer":0,"byteLength":900,"byteOffset":0,"target":34963},{"buffer":0,"byteLength":3720,"byteOffset":900,"target":34962},{"buffer":0,"byteLength":3720,"byteOffset":4620,"target":34962},{"buffer":0,"byteLength":2480,"byteOffset":8340,"target":34962}],"buffers":[{"byteLength":10820,"uri":"Wooden_Staff.bin"}],"materials":[{"alphaMode":"OPAQUE","doubleSided":false,"extras":{"fromFBX":{"isTruePBR":false,"shadingModel":"Lambert"}},"name":"DefaultMaterial","pbrMetallicRoughness":{"baseColorFactor":[0.5,0.5,0.5,1],"metallicFactor":0.200000002980232,"roughnessFactor":0.800000011920929}}],"meshes":[{"name":"Wooden_Staff","primitives":[{"attributes":{"NORMAL":2,"POSITION":1,"TEXCOORD_0":3},"indices":0,"material":0,"mode":4}]}],"nodes":[{"mesh":0,"name":"Wooden_Staff","originalUnits":0.00999999977648258,"pivot":[0,0,0],"rotation":[0,0,0,1],"scale":[1,1,1],"translation":[0,0,0]}],"samplers":[{}],"scene":0,"scenes":[{"name":"Root Scene","nodes":[0]}]}