{"accessors":[{"bufferView":0,"byteOffset":0,"componentType":5123,"count":1500,"type":"SCALAR"},{"bufferView":1,"byteOffset":0,"componentType":5126,"count":990,"max":[0.0325101986527443,0.193954616785049,0.0208998620510101],"min":[-0.11735392361879,-0.31556132435799,-0.02171759493649],"type":"VEC3"},{"bufferView":2,"byteOffset":0,"componentType":5126,"count":990,"type":"VEC3"},{"bufferView":3,"byteOffset":0,"componentType":5126,"count":990,"type":"VEC2"}],"asset":{"generator":"FBX2glTF v0.13.0","version":"2.0"},"bufferViews":[{"buffer":0,"byteLength":3000,"byteOffset":0,"target":34963},{"buffer":0,"byteLength":11880,"byteOffset":3000,"target":34962},{"buffer":0,"byteLength":11880,"byteOffset":14880,"target":34962},{"buffer":0,"byteLength":7920,"byteOffset":26760,"target":34962}],"buffers":[{"byteLength":34680,"uri":"Axe.bin"}],"materials":[{"alphaMode":"OPAQUE","doubleSided":false,"extras":{"fromFBX":{"isTruePBR":false,"shadingModel":"Lambert"}},"name":"DefaultMaterial","pbrMetallicRoughness":{"baseColorFactor":[0.5,0.5,0.5,1],"metallicFactor":0.200000002980232,"roughnessFactor":0.800000011920929}}],"meshes":[{"name":"Axe","primitives":[{"attributes":{"NORMAL":2,"POSITION":1,"TEXCOORD_0":3},"indices":0,"material":0,"mode":4}]}],"nodes":[{"mesh":0,"name":"Axe","originalUnits":0.00999999977648258,"pivot":[0,0,0],"rotation":[0,0,0,1],"scale":[1,1,1],"translation":[0,0,0]}],"samplers":[{}],"scene":0,"scenes":[{"name":"Root Scene","nodes":[0]}]}