{"accessors":[{"bufferView":0,"byteOffset":0,"componentType":5123,"count":7734,"type":"SCALAR"},{"bufferView":1,"byteOffset":0,"componentType":5126,"count":5168,"max":[0.217038303613663,0.227902501821518,0.168967545032501],"min":[-0.21703830361366,-0.26575297117233,-0.21488507091999],"type":"VEC3"},{"bufferView":2,"byteOffset":0,"componentType":5126,"count":5168,"type":"VEC3"},{"bufferView":3,"byteOffset":0,"componentType":5126,"count":5168,"type":"VEC2"}],"asset":{"generator":"FBX2glTF v0.13.0","version":"2.0"},"bufferViews":[{"buffer":0,"byteLength":15468,"byteOffset":0,"target":34963},{"buffer":0,"byteLength":62016,"byteOffset":15468,"target":34962},{"buffer":0,"byteLength":62016,"byteOffset":77484,"target":34962},{"buffer":0,"byteLength":41344,"byteOffset":139500,"target":34962}],"buffers":[{"byteLength":180844,"uri":"Backpack.bin"}],"materials":[{"alphaMode":"OPAQUE","doubleSided":false,"extras":{"fromFBX":{"isTruePBR":false,"shadingModel":"Lambert"}},"name":"DefaultMaterial","pbrMetallicRoughness":{"baseColorFactor":[0.5,0.5,0.5,1],"metallicFactor":0.200000002980232,"roughnessFactor":0.800000011920929}}],"meshes":[{"name":"Backpack","primitives":[{"attributes":{"NORMAL":2,"POSITION":1,"TEXCOORD_0":3},"indices":0,"material":0,"mode":4}]}],"nodes":[{"mesh":0,"name":"Backpack","originalUnits":0.00999999977648258,"pivot":[0,0,0],"rotation":[0,0,0,1],"scale":[1,1,1],"translation":[0,0,0]}],"samplers":[{}],"scene":0,"scenes":[{"name":"Root Scene","nodes":[0]}]}