{"accessors":[{"bufferView":0,"byteOffset":0,"componentType":5123,"count":1956,"type":"SCALAR"},{"bufferView":1,"byteOffset":0,"componentType":5126,"count":1302,"max":[0.347005188465118,0.220403149724007,0.101468697190285],"min":[-0.34700518846512,-0.0000000393942,-0.10319178551436],"type":"VEC3"},{"bufferView":2,"byteOffset":0,"componentType":5126,"count":1302,"type":"VEC3"},{"bufferView":3,"byteOffset":0,"componentType":5126,"count":1302,"type":"VEC2"}],"asset":{"generator":"FBX2glTF v0.13.0","version":"2.0"},"bufferViews":[{"buffer":0,"byteLength":3912,"byteOffset":0,"target":34963},{"buffer":0,"byteLength":15624,"byteOffset":3912,"target":34962},{"buffer":0,"byteLength":15624,"byteOffset":19536,"target":34962},{"buffer":0,"byteLength":10416,"byteOffset":35160,"target":34962}],"buffers":[{"byteLength":45576,"uri":"Bedroll.bin"}],"materials":[{"alphaMode":"OPAQUE","doubleSided":false,"extras":{"fromFBX":{"isTruePBR":false,"shadingModel":"Lambert"}},"name":"DefaultMaterial","pbrMetallicRoughness":{"baseColorFactor":[0.5,0.5,0.5,1],"metallicFactor":0.200000002980232,"roughnessFactor":0.800000011920929}}],"meshes":[{"name":"Bedroll","primitives":[{"attributes":{"NORMAL":2,"POSITION":1,"TEXCOORD_0":3},"indices":0,"material":0,"mode":4}]}],"nodes":[{"mesh":0,"name":"Bedroll","originalUnits":0.00999999977648258,"pivot":[0,0,0],"rotation":[0,0,0,1],"scale":[1,1,1],"translation":[0,0,0]}],"samplers":[{}],"scene":0,"scenes":[{"name":"Root Scene","nodes":[0]}]}