{"accessors":[{"bufferView":0,"byteOffset":0,"componentType":5123,"count":420,"type":"SCALAR"},{"bufferView":1,"byteOffset":0,"componentType":5126,"count":284,"max":[0.0618062429130077,0.0743288695812225,0.130439922213554],"min":[-0.0618036352098,-0.00000018011875,-0.13043837249279],"type":"VEC3"},{"bufferView":2,"byteOffset":0,"componentType":5126,"count":284,"type":"VEC3"},{"bufferView":3,"byteOffset":0,"componentType":5126,"count":284,"type":"VEC2"}],"asset":{"generator":"FBX2glTF v0.13.0","version":"2.0"},"bufferViews":[{"buffer":0,"byteLength":840,"byteOffset":0,"target":34963},{"buffer":0,"byteLength":3408,"byteOffset":840,"target":34962},{"buffer":0,"byteLength":3408,"byteOffset":4248,"target":34962},{"buffer":0,"byteLength":2272,"byteOffset":7656,"target":34962}],"buffers":[{"byteLength":9928,"uri":"Bread2.bin"}],"materials":[{"alphaMode":"OPAQUE","doubleSided":false,"extras":{"fromFBX":{"isTruePBR":false,"shadingModel":"Lambert"}},"name":"DefaultMaterial","pbrMetallicRoughness":{"baseColorFactor":[0.5,0.5,0.5,1],"metallicFactor":0.200000002980232,"roughnessFactor":0.800000011920929}}],"meshes":[{"name":"Bread2","primitives":[{"attributes":{"NORMAL":2,"POSITION":1,"TEXCOORD_0":3},"indices":0,"material":0,"mode":4}]}],"nodes":[{"mesh":0,"name":"Bread2","originalUnits":0.00999999977648258,"pivot":[0,0,0],"rotation":[0,0,0,1],"scale":[1,1,1],"translation":[0,0,0]}],"samplers":[{}],"scene":0,"scenes":[{"name":"Root Scene","nodes":[0]}]}