{"accessors":[{"bufferView":0,"byteOffset":0,"componentType":5123,"count":288,"type":"SCALAR"},{"bufferView":1,"byteOffset":0,"componentType":5126,"count":170,"max":[0.060088574886322,0.018469488248229,0.0808025747537613],"min":[-0.06008772552013,-0.00000006042068,-0.05469656735659],"type":"VEC3"},{"bufferView":2,"byteOffset":0,"componentType":5126,"count":170,"type":"VEC3"},{"bufferView":3,"byteOffset":0,"componentType":5126,"count":170,"type":"VEC2"}],"asset":{"generator":"FBX2glTF v0.13.0","version":"2.0"},"bufferViews":[{"buffer":0,"byteLength":576,"byteOffset":0,"target":34963},{"buffer":0,"byteLength":2040,"byteOffset":576,"target":34962},{"buffer":0,"byteLength":2040,"byteOffset":2616,"target":34962},{"buffer":0,"byteLength":1360,"byteOffset":4656,"target":34962}],"buffers":[{"byteLength":6016,"uri":"Bread_Slice.bin"}],"materials":[{"alphaMode":"OPAQUE","doubleSided":false,"extras":{"fromFBX":{"isTruePBR":false,"shadingModel":"Lambert"}},"name":"DefaultMaterial","pbrMetallicRoughness":{"baseColorFactor":[0.5,0.5,0.5,1],"metallicFactor":0.200000002980232,"roughnessFactor":0.800000011920929}}],"meshes":[{"name":"Bread_Slice","primitives":[{"attributes":{"NORMAL":2,"POSITION":1,"TEXCOORD_0":3},"indices":0,"material":0,"mode":4}]}],"nodes":[{"mesh":0,"name":"Bread_Slice","originalUnits":0.00999999977648258,"pivot":[0,0,0],"rotation":[0,0,0,1],"scale":[1,1,1],"translation":[0,0,0]}],"samplers":[{}],"scene":0,"scenes":[{"name":"Root Scene","nodes":[0]}]}