{"accessors":[{"bufferView":0,"byteOffset":0,"componentType":5123,"count":288,"type":"SCALAR"},{"bufferView":1,"byteOffset":0,"componentType":5126,"count":158,"max":[0.0600879788398743,0.135499089956284,0.127375826239586],"min":[-0.06008825823665,-0.00000000125201,-0.12737590074539],"type":"VEC3"},{"bufferView":2,"byteOffset":0,"componentType":5126,"count":158,"type":"VEC3"},{"bufferView":3,"byteOffset":0,"componentType":5126,"count":158,"type":"VEC2"}],"asset":{"generator":"FBX2glTF v0.13.0","version":"2.0"},"bufferViews":[{"buffer":0,"byteLength":576,"byteOffset":0,"target":34963},{"buffer":0,"byteLength":1896,"byteOffset":576,"target":34962},{"buffer":0,"byteLength":1896,"byteOffset":2472,"target":34962},{"buffer":0,"byteLength":1264,"byteOffset":4368,"target":34962}],"buffers":[{"byteLength":5632,"uri":"Bread.bin"}],"materials":[{"alphaMode":"OPAQUE","doubleSided":false,"extras":{"fromFBX":{"isTruePBR":false,"shadingModel":"Lambert"}},"name":"DefaultMaterial","pbrMetallicRoughness":{"baseColorFactor":[0.5,0.5,0.5,1],"metallicFactor":0.200000002980232,"roughnessFactor":0.800000011920929}}],"meshes":[{"name":"Bread","primitives":[{"attributes":{"NORMAL":2,"POSITION":1,"TEXCOORD_0":3},"indices":0,"material":0,"mode":4}]}],"nodes":[{"mesh":0,"name":"Bread","originalUnits":0.00999999977648258,"pivot":[0,0,0],"rotation":[0,0,0,1],"scale":[1,1,1],"translation":[0,0,0]}],"samplers":[{}],"scene":0,"scenes":[{"name":"Root Scene","nodes":[0]}]}