{"accessors":[{"bufferView":0,"byteOffset":0,"componentType":5123,"count":492,"type":"SCALAR"},{"bufferView":1,"byteOffset":0,"componentType":5126,"count":319,"max":[0.0610018037259579,0.0580354481935501,0.048930786550045],"min":[-0.07443387061357,0.00000000319614090749099,-0.05472718924284],"type":"VEC3"},{"bufferView":2,"byteOffset":0,"componentType":5126,"count":319,"type":"VEC3"},{"bufferView":3,"byteOffset":0,"componentType":5126,"count":319,"type":"VEC2"}],"asset":{"generator":"FBX2glTF v0.13.0","version":"2.0"},"bufferViews":[{"buffer":0,"byteLength":984,"byteOffset":0,"target":34963},{"buffer":0,"byteLength":3828,"byteOffset":984,"target":34962},{"buffer":0,"byteLength":3828,"byteOffset":4812,"target":34962},{"buffer":0,"byteLength":2552,"byteOffset":8640,"target":34962}],"buffers":[{"byteLength":11192,"uri":"Cheese_Wedge.bin"}],"materials":[{"alphaMode":"OPAQUE","doubleSided":false,"extras":{"fromFBX":{"isTruePBR":false,"shadingModel":"Lambert"}},"name":"DefaultMaterial","pbrMetallicRoughness":{"baseColorFactor":[0.5,0.5,0.5,1],"metallicFactor":0.200000002980232,"roughnessFactor":0.800000011920929}}],"meshes":[{"name":"Cheese_Wedge","primitives":[{"attributes":{"NORMAL":2,"POSITION":1,"TEXCOORD_0":3},"indices":0,"material":0,"mode":4}]}],"nodes":[{"mesh":0,"name":"Cheese_Wedge","originalUnits":0.00999999977648258,"pivot":[0,0,0],"rotation":[0,0,0,1],"scale":[1,1,1],"translation":[0,0,0]}],"samplers":[{}],"scene":0,"scenes":[{"name":"Root Scene","nodes":[0]}]}