{"accessors":[{"bufferView":0,"byteOffset":0,"componentType":5123,"count":1224,"type":"SCALAR"},{"bufferView":1,"byteOffset":0,"componentType":5126,"count":794,"max":[0.0535033643245697,0.0279236268252134,0.0535033643245697],"min":[-0.05350336432457,0,-0.05350336432457],"type":"VEC3"},{"bufferView":2,"byteOffset":0,"componentType":5126,"count":794,"type":"VEC3"},{"bufferView":3,"byteOffset":0,"componentType":5126,"count":794,"type":"VEC2"}],"asset":{"generator":"FBX2glTF v0.13.0","version":"2.0"},"bufferViews":[{"buffer":0,"byteLength":2448,"byteOffset":0,"target":34963},{"buffer":0,"byteLength":9528,"byteOffset":2448,"target":34962},{"buffer":0,"byteLength":9528,"byteOffset":11976,"target":34962},{"buffer":0,"byteLength":6352,"byteOffset":21504,"target":34962}],"buffers":[{"byteLength":27856,"uri":"Compass.bin"}],"materials":[{"alphaMode":"OPAQUE","doubleSided":false,"extras":{"fromFBX":{"isTruePBR":false,"shadingModel":"Lambert"}},"name":"DefaultMaterial","pbrMetallicRoughness":{"baseColorFactor":[0.5,0.5,0.5,1],"metallicFactor":0.200000002980232,"roughnessFactor":0.800000011920929}}],"meshes":[{"name":"Compass","primitives":[{"attributes":{"NORMAL":2,"POSITION":1,"TEXCOORD_0":3},"indices":0,"material":0,"mode":4}]}],"nodes":[{"mesh":0,"name":"Compass","originalUnits":0.00999999977648258,"pivot":[0,0,0],"rotation":[0,0,0,1],"scale":[1,1,1],"translation":[0,0,0]}],"samplers":[{}],"scene":0,"scenes":[{"name":"Root Scene","nodes":[0]}]}