{"accessors":[{"bufferView":0,"byteOffset":0,"componentType":5123,"count":1146,"type":"SCALAR"},{"bufferView":1,"byteOffset":0,"componentType":5126,"count":748,"max":[0.232074394822121,0.0811229273676872,0.232025310397148],"min":[-0.23197619616985,-0.00000045541674,-0.23202531039715],"type":"VEC3"},{"bufferView":2,"byteOffset":0,"componentType":5126,"count":748,"type":"VEC3"},{"bufferView":3,"byteOffset":0,"componentType":5126,"count":748,"type":"VEC2"}],"asset":{"generator":"FBX2glTF v0.13.0","version":"2.0"},"bufferViews":[{"buffer":0,"byteLength":2292,"byteOffset":0,"target":34963},{"buffer":0,"byteLength":8976,"byteOffset":2292,"target":34962},{"buffer":0,"byteLength":8976,"byteOffset":11268,"target":34962},{"buffer":0,"byteLength":5984,"byteOffset":20244,"target":34962}],"buffers":[{"byteLength":26228,"uri":"Cooking_Stand_Lid.bin"}],"materials":[{"alphaMode":"OPAQUE","doubleSided":false,"extras":{"fromFBX":{"isTruePBR":false,"shadingModel":"Lambert"}},"name":"DefaultMaterial","pbrMetallicRoughness":{"baseColorFactor":[0.5,0.5,0.5,1],"metallicFactor":0.200000002980232,"roughnessFactor":0.800000011920929}}],"meshes":[{"name":"Cooking_Stand_Lid","primitives":[{"attributes":{"NORMAL":2,"POSITION":1,"TEXCOORD_0":3},"indices":0,"material":0,"mode":4}]}],"nodes":[{"mesh":0,"name":"Cooking_Stand_Lid","originalUnits":0.00999999977648258,"pivot":[0,0,0],"rotation":[0,0,0,1],"scale":[1,1,1],"translation":[0,0,0]}],"samplers":[{}],"scene":0,"scenes":[{"name":"Root Scene","nodes":[0]}]}