{"accessors":[{"bufferView":0,"byteOffset":0,"componentType":5123,"count":1548,"type":"SCALAR"},{"bufferView":1,"byteOffset":0,"componentType":5126,"count":1010,"max":[0.280938565731049,0.531257808208466,0.280938923358917],"min":[-0.28093808889389,0,-0.28093776106834],"type":"VEC3"},{"bufferView":2,"byteOffset":0,"componentType":5126,"count":1010,"type":"VEC3"},{"bufferView":3,"byteOffset":0,"componentType":5126,"count":1010,"type":"VEC2"}],"asset":{"generator":"FBX2glTF v0.13.0","version":"2.0"},"bufferViews":[{"buffer":0,"byteLength":3096,"byteOffset":0,"target":34963},{"buffer":0,"byteLength":12120,"byteOffset":3096,"target":34962},{"buffer":0,"byteLength":12120,"byteOffset":15216,"target":34962},{"buffer":0,"byteLength":8080,"byteOffset":27336,"target":34962}],"buffers":[{"byteLength":35416,"uri":"Cooking_Stand_Base.bin"}],"materials":[{"alphaMode":"OPAQUE","doubleSided":false,"extras":{"fromFBX":{"isTruePBR":false,"shadingModel":"Lambert"}},"name":"DefaultMaterial","pbrMetallicRoughness":{"baseColorFactor":[0.5,0.5,0.5,1],"metallicFactor":0.200000002980232,"roughnessFactor":0.800000011920929}}],"meshes":[{"name":"Cooking_Stand_Base","primitives":[{"attributes":{"NORMAL":2,"POSITION":1,"TEXCOORD_0":3},"indices":0,"material":0,"mode":4}]}],"nodes":[{"mesh":0,"name":"Cooking_Stand_Base","originalUnits":0.00999999977648258,"pivot":[0,0,0],"rotation":[0,0,0,1],"scale":[1,1,1],"translation":[0,0,0]}],"samplers":[{}],"scene":0,"scenes":[{"name":"Root Scene","nodes":[0]}]}