{"accessors":[{"bufferView":0,"byteOffset":0,"componentType":5123,"count":2490,"type":"SCALAR"},{"bufferView":1,"byteOffset":0,"componentType":5126,"count":1636,"max":[0.122835993766785,0.00527388323098421,0.132850214838982],"min":[-0.14269685745239,-0.30530661344528,-0.13268265128136],"type":"VEC3"},{"bufferView":2,"byteOffset":0,"componentType":5126,"count":1636,"type":"VEC3"},{"bufferView":3,"byteOffset":0,"componentType":5126,"count":1636,"type":"VEC2"}],"asset":{"generator":"FBX2glTF v0.13.0","version":"2.0"},"bufferViews":[{"buffer":0,"byteLength":4980,"byteOffset":0,"target":34963},{"buffer":0,"byteLength":19632,"byteOffset":4980,"target":34962},{"buffer":0,"byteLength":19632,"byteOffset":24612,"target":34962},{"buffer":0,"byteLength":13088,"byteOffset":44244,"target":34962}],"buffers":[{"byteLength":57332,"uri":"Cooking_Pot.bin"}],"materials":[{"alphaMode":"OPAQUE","doubleSided":false,"extras":{"fromFBX":{"isTruePBR":false,"shadingModel":"Lambert"}},"name":"DefaultMaterial","pbrMetallicRoughness":{"baseColorFactor":[0.5,0.5,0.5,1],"metallicFactor":0.200000002980232,"roughnessFactor":0.800000011920929}}],"meshes":[{"name":"Cooking_Pot","primitives":[{"attributes":{"NORMAL":2,"POSITION":1,"TEXCOORD_0":3},"indices":0,"material":0,"mode":4}]}],"nodes":[{"mesh":0,"name":"Cooking_Pot","originalUnits":0.00999999977648258,"pivot":[0,0,0],"rotation":[0,0,0,1],"scale":[1,1,1],"translation":[0,0,0]}],"samplers":[{}],"scene":0,"scenes":[{"name":"Root Scene","nodes":[0]}]}