{"accessors":[{"bufferView":0,"byteOffset":0,"componentType":5123,"count":1044,"type":"SCALAR"},{"bufferView":1,"byteOffset":0,"componentType":5126,"count":688,"max":[0.264734238386154,0.525321960449219,0.0185619667172432],"min":[-0.26052406430244,0.413640141487122,-0.29746320843697],"type":"VEC3"},{"bufferView":2,"byteOffset":0,"componentType":5126,"count":688,"type":"VEC3"},{"bufferView":3,"byteOffset":0,"componentType":5126,"count":688,"type":"VEC2"}],"asset":{"generator":"FBX2glTF v0.13.0","version":"2.0"},"bufferViews":[{"buffer":0,"byteLength":2088,"byteOffset":0,"target":34963},{"buffer":0,"byteLength":8256,"byteOffset":2088,"target":34962},{"buffer":0,"byteLength":8256,"byteOffset":10344,"target":34962},{"buffer":0,"byteLength":5504,"byteOffset":18600,"target":34962}],"buffers":[{"byteLength":24104,"uri":"Cooking_Stand_Handle.bin"}],"materials":[{"alphaMode":"OPAQUE","doubleSided":false,"extras":{"fromFBX":{"isTruePBR":false,"shadingModel":"Lambert"}},"name":"DefaultMaterial","pbrMetallicRoughness":{"baseColorFactor":[0.5,0.5,0.5,1],"metallicFactor":0.200000002980232,"roughnessFactor":0.800000011920929}}],"meshes":[{"name":"Cooking_Stand_Handle","primitives":[{"attributes":{"NORMAL":2,"POSITION":1,"TEXCOORD_0":3},"indices":0,"material":0,"mode":4}]}],"nodes":[{"mesh":0,"name":"Cooking_Stand_Handle","originalUnits":0.00999999977648258,"pivot":[0,0,0],"rotation":[0,0,0,1],"scale":[1,1,1],"translation":[0,0,0]}],"samplers":[{}],"scene":0,"scenes":[{"name":"Root Scene","nodes":[0]}]}