{"accessors":[{"bufferView":0,"byteOffset":0,"componentType":5123,"count":2706,"type":"SCALAR"},{"bufferView":1,"byteOffset":0,"componentType":5126,"count":1774,"max":[0.280938446521759,0.598225057125092,0.280938923358917],"min":[-0.28093820810318,0,-0.29746320843697],"type":"VEC3"},{"bufferView":2,"byteOffset":0,"componentType":5126,"count":1774,"type":"VEC3"},{"bufferView":3,"byteOffset":0,"componentType":5126,"count":1774,"type":"VEC2"}],"asset":{"generator":"FBX2glTF v0.13.0","version":"2.0"},"bufferViews":[{"buffer":0,"byteLength":5412,"byteOffset":0,"target":34963},{"buffer":0,"byteLength":21288,"byteOffset":5412,"target":34962},{"buffer":0,"byteLength":21288,"byteOffset":26700,"target":34962},{"buffer":0,"byteLength":14192,"byteOffset":47988,"target":34962}],"buffers":[{"byteLength":62180,"uri":"Cooking_Stand.bin"}],"materials":[{"alphaMode":"OPAQUE","doubleSided":false,"extras":{"fromFBX":{"isTruePBR":false,"shadingModel":"Lambert"}},"name":"DefaultMaterial","pbrMetallicRoughness":{"baseColorFactor":[0.5,0.5,0.5,1],"metallicFactor":0.200000002980232,"roughnessFactor":0.800000011920929}}],"meshes":[{"name":"Cooking_Stand","primitives":[{"attributes":{"NORMAL":2,"POSITION":1,"TEXCOORD_0":3},"indices":0,"material":0,"mode":4}]}],"nodes":[{"mesh":0,"name":"Cooking_Stand","originalUnits":0.00999999977648258,"pivot":[0,0,0],"rotation":[0,0,0,1],"scale":[1,1,1],"translation":[0,0,0]}],"samplers":[{}],"scene":0,"scenes":[{"name":"Root Scene","nodes":[0]}]}