{"accessors":[{"bufferView":0,"byteOffset":0,"componentType":5123,"count":1044,"type":"SCALAR"},{"bufferView":1,"byteOffset":0,"componentType":5126,"count":696,"max":[0.0522862523794174,0.0110554536804557,0.0814743563532829],"min":[-0.04685356840491,-0.00097433116753,-0.07826206833124],"type":"VEC3"},{"bufferView":2,"byteOffset":0,"componentType":5126,"count":696,"type":"VEC3"},{"bufferView":3,"byteOffset":0,"componentType":5126,"count":696,"type":"VEC2"}],"asset":{"generator":"FBX2glTF v0.13.0","version":"2.0"},"bufferViews":[{"buffer":0,"byteLength":2088,"byteOffset":0,"target":34963},{"buffer":0,"byteLength":8352,"byteOffset":2088,"target":34962},{"buffer":0,"byteLength":8352,"byteOffset":10440,"target":34962},{"buffer":0,"byteLength":5568,"byteOffset":18792,"target":34962}],"buffers":[{"byteLength":24360,"uri":"Dried_Meat.bin"}],"materials":[{"alphaMode":"OPAQUE","doubleSided":false,"extras":{"fromFBX":{"isTruePBR":false,"shadingModel":"Lambert"}},"name":"DefaultMaterial","pbrMetallicRoughness":{"baseColorFactor":[0.5,0.5,0.5,1],"metallicFactor":0.200000002980232,"roughnessFactor":0.800000011920929}}],"meshes":[{"name":"Dried_Meat","primitives":[{"attributes":{"NORMAL":2,"POSITION":1,"TEXCOORD_0":3},"indices":0,"material":0,"mode":4}]}],"nodes":[{"mesh":0,"name":"Dried_Meat","originalUnits":0.00999999977648258,"pivot":[0,0,0],"rotation":[0,0,0,1],"scale":[1,1,1],"translation":[0,0,0]}],"samplers":[{}],"scene":0,"scenes":[{"name":"Root Scene","nodes":[0]}]}