{"accessors":[{"bufferView":0,"byteOffset":0,"componentType":5123,"count":348,"type":"SCALAR"},{"bufferView":1,"byteOffset":0,"componentType":5126,"count":232,"max":[0.0152056384831667,0.0110554536804557,0.0695075765252113],"min":[-0.01984583027661,0.000000000476268802174218,-0.06605491042137],"type":"VEC3"},{"bufferView":2,"byteOffset":0,"componentType":5126,"count":232,"type":"VEC3"},{"bufferView":3,"byteOffset":0,"componentType":5126,"count":232,"type":"VEC2"}],"asset":{"generator":"FBX2glTF v0.13.0","version":"2.0"},"bufferViews":[{"buffer":0,"byteLength":696,"byteOffset":0,"target":34963},{"buffer":0,"byteLength":2784,"byteOffset":696,"target":34962},{"buffer":0,"byteLength":2784,"byteOffset":3480,"target":34962},{"buffer":0,"byteLength":1856,"byteOffset":6264,"target":34962}],"buffers":[{"byteLength":8120,"uri":"Dried_Meat2.bin"}],"materials":[{"alphaMode":"OPAQUE","doubleSided":false,"extras":{"fromFBX":{"isTruePBR":false,"shadingModel":"Lambert"}},"name":"DefaultMaterial","pbrMetallicRoughness":{"baseColorFactor":[0.5,0.5,0.5,1],"metallicFactor":0.200000002980232,"roughnessFactor":0.800000011920929}}],"meshes":[{"name":"Dried_Meat2","primitives":[{"attributes":{"NORMAL":2,"POSITION":1,"TEXCOORD_0":3},"indices":0,"material":0,"mode":4}]}],"nodes":[{"mesh":0,"name":"Dried_Meat2","originalUnits":0.00999999977648258,"pivot":[0,0,0],"rotation":[0,0,0,1],"scale":[1,1,1],"translation":[0,0,0]}],"samplers":[{}],"scene":0,"scenes":[{"name":"Root Scene","nodes":[0]}]}