{"accessors":[{"bufferView":0,"byteOffset":0,"componentType":5123,"count":660,"type":"SCALAR"},{"bufferView":1,"byteOffset":0,"componentType":5126,"count":454,"max":[0.0472978949546814,0.00601899018511176,0.0300346314907074],"min":[-0.0523451641202,-0.00025415181881,-0.04990125447512],"type":"VEC3"},{"bufferView":2,"byteOffset":0,"componentType":5126,"count":454,"type":"VEC3"},{"bufferView":3,"byteOffset":0,"componentType":5126,"count":454,"type":"VEC2"}],"asset":{"generator":"FBX2glTF v0.13.0","version":"2.0"},"bufferViews":[{"buffer":0,"byteLength":1320,"byteOffset":0,"target":34963},{"buffer":0,"byteLength":5448,"byteOffset":1320,"target":34962},{"buffer":0,"byteLength":5448,"byteOffset":6768,"target":34962},{"buffer":0,"byteLength":3632,"byteOffset":12216,"target":34962}],"buffers":[{"byteLength":15848,"uri":"Firestarter.bin"}],"materials":[{"alphaMode":"OPAQUE","doubleSided":false,"extras":{"fromFBX":{"isTruePBR":false,"shadingModel":"Lambert"}},"name":"DefaultMaterial","pbrMetallicRoughness":{"baseColorFactor":[0.5,0.5,0.5,1],"metallicFactor":0.200000002980232,"roughnessFactor":0.800000011920929}}],"meshes":[{"name":"Firestarter","primitives":[{"attributes":{"NORMAL":2,"POSITION":1,"TEXCOORD_0":3},"indices":0,"material":0,"mode":4}]}],"nodes":[{"mesh":0,"name":"Firestarter","originalUnits":0.00999999977648258,"pivot":[0,0,0],"rotation":[0,0,0,1],"scale":[1,1,1],"translation":[0,0,0]}],"samplers":[{}],"scene":0,"scenes":[{"name":"Root Scene","nodes":[0]}]}