{"accessors":[{"bufferView":0,"byteOffset":0,"componentType":5123,"count":288,"type":"SCALAR"},{"bufferView":1,"byteOffset":0,"componentType":5126,"count":208,"max":[0.0326627753674984,0.0509202480316162,0.032662607729435],"min":[-0.03266244009137,0.000000000161647653595942,-0.03266260772944],"type":"VEC3"},{"bufferView":2,"byteOffset":0,"componentType":5126,"count":208,"type":"VEC3"},{"bufferView":3,"byteOffset":0,"componentType":5126,"count":208,"type":"VEC2"}],"asset":{"generator":"FBX2glTF v0.13.0","version":"2.0"},"bufferViews":[{"buffer":0,"byteLength":576,"byteOffset":0,"target":34963},{"buffer":0,"byteLength":2496,"byteOffset":576,"target":34962},{"buffer":0,"byteLength":2496,"byteOffset":3072,"target":34962},{"buffer":0,"byteLength":1664,"byteOffset":5568,"target":34962}],"buffers":[{"byteLength":7232,"uri":"Fruit_Red_Small.bin"}],"materials":[{"alphaMode":"OPAQUE","doubleSided":false,"extras":{"fromFBX":{"isTruePBR":false,"shadingModel":"Lambert"}},"name":"DefaultMaterial","pbrMetallicRoughness":{"baseColorFactor":[0.5,0.5,0.5,1],"metallicFactor":0.200000002980232,"roughnessFactor":0.800000011920929}}],"meshes":[{"name":"Fruit_Red_Small","primitives":[{"attributes":{"NORMAL":2,"POSITION":1,"TEXCOORD_0":3},"indices":0,"material":0,"mode":4}]}],"nodes":[{"mesh":0,"name":"Fruit_Red_Small","originalUnits":0.00999999977648258,"pivot":[0,0,0],"rotation":[0,0,0,1],"scale":[1,1,1],"translation":[0,0,0]}],"samplers":[{}],"scene":0,"scenes":[{"name":"Root Scene","nodes":[0]}]}