{"accessors":[{"bufferView":0,"byteOffset":0,"componentType":5123,"count":1152,"type":"SCALAR"},{"bufferView":1,"byteOffset":0,"componentType":5126,"count":832,"max":[0.108364693820477,0.0702384263277054,0.0700488612055779],"min":[-0.10893063247204,-0.00615532509983,-0.06764630973339],"type":"VEC3"},{"bufferView":2,"byteOffset":0,"componentType":5126,"count":832,"type":"VEC3"},{"bufferView":3,"byteOffset":0,"componentType":5126,"count":832,"type":"VEC2"}],"asset":{"generator":"FBX2glTF v0.13.0","version":"2.0"},"bufferViews":[{"buffer":0,"byteLength":2304,"byteOffset":0,"target":34963},{"buffer":0,"byteLength":9984,"byteOffset":2304,"target":34962},{"buffer":0,"byteLength":9984,"byteOffset":12288,"target":34962},{"buffer":0,"byteLength":6656,"byteOffset":22272,"target":34962}],"buffers":[{"byteLength":28928,"uri":"Fruit.bin"}],"materials":[{"alphaMode":"OPAQUE","doubleSided":false,"extras":{"fromFBX":{"isTruePBR":false,"shadingModel":"Lambert"}},"name":"DefaultMaterial","pbrMetallicRoughness":{"baseColorFactor":[0.5,0.5,0.5,1],"metallicFactor":0.200000002980232,"roughnessFactor":0.800000011920929}}],"meshes":[{"name":"Fruit","primitives":[{"attributes":{"NORMAL":2,"POSITION":1,"TEXCOORD_0":3},"indices":0,"material":0,"mode":4}]}],"nodes":[{"mesh":0,"name":"Fruit","originalUnits":0.00999999977648258,"pivot":[0,0,0],"rotation":[0,0,0,1],"scale":[1,1,1],"translation":[0,0,0]}],"samplers":[{}],"scene":0,"scenes":[{"name":"Root Scene","nodes":[0]}]}