{"accessors":[{"bufferView":0,"byteOffset":0,"componentType":5123,"count":360,"type":"SCALAR"},{"bufferView":1,"byteOffset":0,"componentType":5126,"count":360,"max":[0.0652808099985123,0.127158463001251,0.077507495880127],"min":[-0.07150927186012,-0.00125934928656,-0.07823303341866],"type":"VEC3"},{"bufferView":2,"byteOffset":0,"componentType":5126,"count":360,"type":"VEC3"},{"bufferView":3,"byteOffset":0,"componentType":5126,"count":360,"type":"VEC2"}],"asset":{"generator":"FBX2glTF v0.13.0","version":"2.0"},"bufferViews":[{"buffer":0,"byteLength":720,"byteOffset":0,"target":34963},{"buffer":0,"byteLength":4320,"byteOffset":720,"target":34962},{"buffer":0,"byteLength":4320,"byteOffset":5040,"target":34962},{"buffer":0,"byteLength":2880,"byteOffset":9360,"target":34962}],"buffers":[{"byteLength":12240,"uri":"Herbs3.bin"}],"materials":[{"alphaMode":"OPAQUE","doubleSided":false,"extras":{"fromFBX":{"isTruePBR":false,"shadingModel":"Lambert"}},"name":"DefaultMaterial","pbrMetallicRoughness":{"baseColorFactor":[0.5,0.5,0.5,1],"metallicFactor":0.200000002980232,"roughnessFactor":0.800000011920929}}],"meshes":[{"name":"Herbs3","primitives":[{"attributes":{"NORMAL":2,"POSITION":1,"TEXCOORD_0":3},"indices":0,"material":0,"mode":4}]}],"nodes":[{"mesh":0,"name":"Herbs3","originalUnits":0.00999999977648258,"pivot":[0,0,0],"rotation":[0,0,0,1],"scale":[1,1,1],"translation":[0,0,0]}],"samplers":[{}],"scene":0,"scenes":[{"name":"Root Scene","nodes":[0]}]}