{"accessors":[{"bufferView":0,"byteOffset":0,"componentType":5123,"count":648,"type":"SCALAR"},{"bufferView":1,"byteOffset":0,"componentType":5126,"count":432,"max":[0.0712600648403168,0.221554443240166,0.0261871088296175],"min":[-0.06933356821537,-0.00087902881205,-0.02768439985812],"type":"VEC3"},{"bufferView":2,"byteOffset":0,"componentType":5126,"count":432,"type":"VEC3"},{"bufferView":3,"byteOffset":0,"componentType":5126,"count":432,"type":"VEC2"}],"asset":{"generator":"FBX2glTF v0.13.0","version":"2.0"},"bufferViews":[{"buffer":0,"byteLength":1296,"byteOffset":0,"target":34963},{"buffer":0,"byteLength":5184,"byteOffset":1296,"target":34962},{"buffer":0,"byteLength":5184,"byteOffset":6480,"target":34962},{"buffer":0,"byteLength":3456,"byteOffset":11664,"target":34962}],"buffers":[{"byteLength":15120,"uri":"Herbs1.bin"}],"materials":[{"alphaMode":"OPAQUE","doubleSided":false,"extras":{"fromFBX":{"isTruePBR":false,"shadingModel":"Lambert"}},"name":"DefaultMaterial","pbrMetallicRoughness":{"baseColorFactor":[0.5,0.5,0.5,1],"metallicFactor":0.200000002980232,"roughnessFactor":0.800000011920929}}],"meshes":[{"name":"Herbs1","primitives":[{"attributes":{"NORMAL":2,"POSITION":1,"TEXCOORD_0":3},"indices":0,"material":0,"mode":4}]}],"nodes":[{"mesh":0,"name":"Herbs1","originalUnits":0.00999999977648258,"pivot":[0,0,0],"rotation":[0,0,0,1],"scale":[1,1,1],"translation":[0,0,0]}],"samplers":[{}],"scene":0,"scenes":[{"name":"Root Scene","nodes":[0]}]}