{"accessors":[{"bufferView":0,"byteOffset":0,"componentType":5123,"count":1164,"type":"SCALAR"},{"bufferView":1,"byteOffset":0,"componentType":5126,"count":756,"max":[0.0344775393605232,0.230937361717224,0.0279382895678282],"min":[-0.03242802619934,0.00000000372529029846191,-0.02619541995227],"type":"VEC3"},{"bufferView":2,"byteOffset":0,"componentType":5126,"count":756,"type":"VEC3"},{"bufferView":3,"byteOffset":0,"componentType":5126,"count":756,"type":"VEC2"}],"asset":{"generator":"FBX2glTF v0.13.0","version":"2.0"},"bufferViews":[{"buffer":0,"byteLength":2328,"byteOffset":0,"target":34963},{"buffer":0,"byteLength":9072,"byteOffset":2328,"target":34962},{"buffer":0,"byteLength":9072,"byteOffset":11400,"target":34962},{"buffer":0,"byteLength":6048,"byteOffset":20472,"target":34962}],"buffers":[{"byteLength":26520,"uri":"Herbs2.bin"}],"materials":[{"alphaMode":"OPAQUE","doubleSided":false,"extras":{"fromFBX":{"isTruePBR":false,"shadingModel":"Lambert"}},"name":"DefaultMaterial","pbrMetallicRoughness":{"baseColorFactor":[0.5,0.5,0.5,1],"metallicFactor":0.200000002980232,"roughnessFactor":0.800000011920929}}],"meshes":[{"name":"Herbs2","primitives":[{"attributes":{"NORMAL":2,"POSITION":1,"TEXCOORD_0":3},"indices":0,"material":0,"mode":4}]}],"nodes":[{"mesh":0,"name":"Herbs2","originalUnits":0.00999999977648258,"pivot":[0,0,0],"rotation":[0,0,0,1],"scale":[1,1,1],"translation":[0,0,0]}],"samplers":[{}],"scene":0,"scenes":[{"name":"Root Scene","nodes":[0]}]}