{"accessors":[{"bufferView":0,"byteOffset":0,"componentType":5123,"count":3300,"type":"SCALAR"},{"bufferView":1,"byteOffset":0,"componentType":5126,"count":2292,"max":[0.172023564577103,0.261130750179291,0.166695207357407],"min":[-0.15802939236164,0,-0.15552473068237],"type":"VEC3"},{"bufferView":2,"byteOffset":0,"componentType":5126,"count":2292,"type":"VEC3"},{"bufferView":3,"byteOffset":0,"componentType":5126,"count":2292,"type":"VEC2"}],"asset":{"generator":"FBX2glTF v0.13.0","version":"2.0"},"bufferViews":[{"buffer":0,"byteLength":6600,"byteOffset":0,"target":34963},{"buffer":0,"byteLength":27504,"byteOffset":6600,"target":34962},{"buffer":0,"byteLength":27504,"byteOffset":34104,"target":34962},{"buffer":0,"byteLength":18336,"byteOffset":61608,"target":34962}],"buffers":[{"byteLength":79944,"uri":"Herb_Pouch.bin"}],"materials":[{"alphaMode":"OPAQUE","doubleSided":false,"extras":{"fromFBX":{"isTruePBR":false,"shadingModel":"Lambert"}},"name":"DefaultMaterial","pbrMetallicRoughness":{"baseColorFactor":[0.5,0.5,0.5,1],"metallicFactor":0.200000002980232,"roughnessFactor":0.800000011920929}}],"meshes":[{"name":"Herb_Pouch","primitives":[{"attributes":{"NORMAL":2,"POSITION":1,"TEXCOORD_0":3},"indices":0,"material":0,"mode":4}]}],"nodes":[{"mesh":0,"name":"Herb_Pouch","originalUnits":0.00999999977648258,"pivot":[0,0,0],"rotation":[0,0,0,1],"scale":[1,1,1],"translation":[0,0,0]}],"samplers":[{}],"scene":0,"scenes":[{"name":"Root Scene","nodes":[0]}]}