{"accessors":[{"bufferView":0,"byteOffset":0,"componentType":5123,"count":1011,"type":"SCALAR"},{"bufferView":1,"byteOffset":0,"componentType":5126,"count":644,"max":[0.0989455655217171,0.0437927730381489,0.10690949857235],"min":[-0.08796538412571,-0.00000000026592,-0.10257454961538],"type":"VEC3"},{"bufferView":2,"byteOffset":0,"componentType":5126,"count":644,"type":"VEC3"},{"bufferView":3,"byteOffset":0,"componentType":5126,"count":644,"type":"VEC2"}],"asset":{"generator":"FBX2glTF v0.13.0","version":"2.0"},"bufferViews":[{"buffer":0,"byteLength":2022,"byteOffset":0,"target":34963},{"buffer":0,"byteLength":7728,"byteOffset":2024,"target":34962},{"buffer":0,"byteLength":7728,"byteOffset":9752,"target":34962},{"buffer":0,"byteLength":5152,"byteOffset":17480,"target":34962}],"buffers":[{"byteLength":22632,"uri":"Journal.bin"}],"materials":[{"alphaMode":"OPAQUE","doubleSided":false,"extras":{"fromFBX":{"isTruePBR":false,"shadingModel":"Lambert"}},"name":"DefaultMaterial","pbrMetallicRoughness":{"baseColorFactor":[0.5,0.5,0.5,1],"metallicFactor":0.200000002980232,"roughnessFactor":0.800000011920929}}],"meshes":[{"name":"Journal","primitives":[{"attributes":{"NORMAL":2,"POSITION":1,"TEXCOORD_0":3},"indices":0,"material":0,"mode":4}]}],"nodes":[{"mesh":0,"name":"Journal","originalUnits":0.00999999977648258,"pivot":[0,0,0],"rotation":[0,0,0,1],"scale":[1,1,1],"translation":[0,0,0]}],"samplers":[{}],"scene":0,"scenes":[{"name":"Root Scene","nodes":[0]}]}