{"accessors":[{"bufferView":0,"byteOffset":0,"componentType":5123,"count":924,"type":"SCALAR"},{"bufferView":1,"byteOffset":0,"componentType":5126,"count":596,"max":[0.0701088011264801,0.0493362955749035,0.0714689567685127],"min":[-0.0720272809267,-0.32378855347633,-0.07066712528467],"type":"VEC3"},{"bufferView":2,"byteOffset":0,"componentType":5126,"count":596,"type":"VEC3"},{"bufferView":3,"byteOffset":0,"componentType":5126,"count":596,"type":"VEC2"}],"asset":{"generator":"FBX2glTF v0.13.0","version":"2.0"},"bufferViews":[{"buffer":0,"byteLength":1848,"byteOffset":0,"target":34963},{"buffer":0,"byteLength":7152,"byteOffset":1848,"target":34962},{"buffer":0,"byteLength":7152,"byteOffset":9000,"target":34962},{"buffer":0,"byteLength":4768,"byteOffset":16152,"target":34962}],"buffers":[{"byteLength":20920,"uri":"Lantern.bin"}],"materials":[{"alphaMode":"OPAQUE","doubleSided":false,"extras":{"fromFBX":{"isTruePBR":false,"shadingModel":"Lambert"}},"name":"DefaultMaterial","pbrMetallicRoughness":{"baseColorFactor":[0.5,0.5,0.5,1],"metallicFactor":0.200000002980232,"roughnessFactor":0.800000011920929}}],"meshes":[{"name":"Lantern","primitives":[{"attributes":{"NORMAL":2,"POSITION":1,"TEXCOORD_0":3},"indices":0,"material":0,"mode":4}]}],"nodes":[{"mesh":0,"name":"Lantern","originalUnits":0.00999999977648258,"pivot":[0,0,0],"rotation":[0,0,0,1],"scale":[1,1,1],"translation":[0,0,0]}],"samplers":[{}],"scene":0,"scenes":[{"name":"Root Scene","nodes":[0]}]}