{"accessors":[{"bufferView":0,"byteOffset":0,"componentType":5123,"count":792,"type":"SCALAR"},{"bufferView":1,"byteOffset":0,"componentType":5126,"count":548,"max":[0.158189862966537,0.0930922850966454,0.00314215291291475],"min":[-0.15620964765549,-0.0971215069294,0.0000000107254081171959],"type":"VEC3"},{"bufferView":2,"byteOffset":0,"componentType":5126,"count":548,"type":"VEC3"},{"bufferView":3,"byteOffset":0,"componentType":5126,"count":548,"type":"VEC2"}],"asset":{"generator":"FBX2glTF v0.13.0","version":"2.0"},"bufferViews":[{"buffer":0,"byteLength":1584,"byteOffset":0,"target":34963},{"buffer":0,"byteLength":6576,"byteOffset":1584,"target":34962},{"buffer":0,"byteLength":6576,"byteOffset":8160,"target":34962},{"buffer":0,"byteLength":4384,"byteOffset":14736,"target":34962}],"buffers":[{"byteLength":19120,"uri":"Map.bin"}],"materials":[{"alphaMode":"OPAQUE","doubleSided":false,"extras":{"fromFBX":{"isTruePBR":false,"shadingModel":"Lambert"}},"name":"DefaultMaterial","pbrMetallicRoughness":{"baseColorFactor":[0.5,0.5,0.5,1],"metallicFactor":0.200000002980232,"roughnessFactor":0.800000011920929}}],"meshes":[{"name":"Map","primitives":[{"attributes":{"NORMAL":2,"POSITION":1,"TEXCOORD_0":3},"indices":0,"material":0,"mode":4}]}],"nodes":[{"mesh":0,"name":"Map","originalUnits":0.00999999977648258,"pivot":[0,0,0],"rotation":[0,0,0,1],"scale":[1,1,1],"translation":[0,0,0]}],"samplers":[{}],"scene":0,"scenes":[{"name":"Root Scene","nodes":[0]}]}