{"accessors":[{"bufferView":0,"byteOffset":0,"componentType":5123,"count":1020,"type":"SCALAR"},{"bufferView":1,"byteOffset":0,"componentType":5126,"count":652,"max":[0.136181280016899,0.3077552318573,0.103860527276993],"min":[-0.1361812800169,0,-0.1407891958952],"type":"VEC3"},{"bufferView":2,"byteOffset":0,"componentType":5126,"count":652,"type":"VEC3"},{"bufferView":3,"byteOffset":0,"componentType":5126,"count":652,"type":"VEC2"}],"asset":{"generator":"FBX2glTF v0.13.0","version":"2.0"},"bufferViews":[{"buffer":0,"byteLength":2040,"byteOffset":0,"target":34963},{"buffer":0,"byteLength":7824,"byteOffset":2040,"target":34962},{"buffer":0,"byteLength":7824,"byteOffset":9864,"target":34962},{"buffer":0,"byteLength":5216,"byteOffset":17688,"target":34962}],"buffers":[{"byteLength":22904,"uri":"Medical_Kit_Empty.bin"}],"materials":[{"alphaMode":"OPAQUE","doubleSided":false,"extras":{"fromFBX":{"isTruePBR":false,"shadingModel":"Lambert"}},"name":"DefaultMaterial","pbrMetallicRoughness":{"baseColorFactor":[0.5,0.5,0.5,1],"metallicFactor":0.200000002980232,"roughnessFactor":0.800000011920929}}],"meshes":[{"name":"Medical_Kit_Empty","primitives":[{"attributes":{"NORMAL":2,"POSITION":1,"TEXCOORD_0":3},"indices":0,"material":0,"mode":4}]}],"nodes":[{"mesh":0,"name":"Medical_Kit_Empty","originalUnits":0.00999999977648258,"pivot":[0,0,0],"rotation":[0,0,0,1],"scale":[1,1,1],"translation":[0,0,0]}],"samplers":[{}],"scene":0,"scenes":[{"name":"Root Scene","nodes":[0]}]}