{"accessors":[{"bufferView":0,"byteOffset":0,"componentType":5123,"count":420,"type":"SCALAR"},{"bufferView":1,"byteOffset":0,"componentType":5126,"count":276,"max":[0.0204074904322624,0.126606091856956,0.0130672808736563],"min":[-0.02042113430798,-0.00000000155541,-0.01306934840977],"type":"VEC3"},{"bufferView":2,"byteOffset":0,"componentType":5126,"count":276,"type":"VEC3"},{"bufferView":3,"byteOffset":0,"componentType":5126,"count":276,"type":"VEC2"}],"asset":{"generator":"FBX2glTF v0.13.0","version":"2.0"},"bufferViews":[{"buffer":0,"byteLength":840,"byteOffset":0,"target":34963},{"buffer":0,"byteLength":3312,"byteOffset":840,"target":34962},{"buffer":0,"byteLength":3312,"byteOffset":4152,"target":34962},{"buffer":0,"byteLength":2208,"byteOffset":7464,"target":34962}],"buffers":[{"byteLength":9672,"uri":"Medical_Cream.bin"}],"materials":[{"alphaMode":"OPAQUE","doubleSided":false,"extras":{"fromFBX":{"isTruePBR":false,"shadingModel":"Lambert"}},"name":"DefaultMaterial","pbrMetallicRoughness":{"baseColorFactor":[0.5,0.5,0.5,1],"metallicFactor":0.200000002980232,"roughnessFactor":0.800000011920929}}],"meshes":[{"name":"Medical_Cream","primitives":[{"attributes":{"NORMAL":2,"POSITION":1,"TEXCOORD_0":3},"indices":0,"material":0,"mode":4}]}],"nodes":[{"mesh":0,"name":"Medical_Cream","originalUnits":0.00999999977648258,"pivot":[0,0,0],"rotation":[0,0,0,1],"scale":[1,1,1],"translation":[0,0,0]}],"samplers":[{}],"scene":0,"scenes":[{"name":"Root Scene","nodes":[0]}]}