{"accessors":[{"bufferView":0,"byteOffset":0,"componentType":5123,"count":708,"type":"SCALAR"},{"bufferView":1,"byteOffset":0,"componentType":5126,"count":424,"max":[0.026241322979331,0.0821405425667763,0.0262411423027515],"min":[-0.02624095603824,0,-0.0262411441654],"type":"VEC3"},{"bufferView":2,"byteOffset":0,"componentType":5126,"count":424,"type":"VEC3"},{"bufferView":3,"byteOffset":0,"componentType":5126,"count":424,"type":"VEC2"}],"asset":{"generator":"FBX2glTF v0.13.0","version":"2.0"},"bufferViews":[{"buffer":0,"byteLength":1416,"byteOffset":0,"target":34963},{"buffer":0,"byteLength":5088,"byteOffset":1416,"target":34962},{"buffer":0,"byteLength":5088,"byteOffset":6504,"target":34962},{"buffer":0,"byteLength":3392,"byteOffset":11592,"target":34962}],"buffers":[{"byteLength":14984,"uri":"Medical_Bandages.bin"}],"materials":[{"alphaMode":"OPAQUE","doubleSided":false,"extras":{"fromFBX":{"isTruePBR":false,"shadingModel":"Lambert"}},"name":"DefaultMaterial","pbrMetallicRoughness":{"baseColorFactor":[0.5,0.5,0.5,1],"metallicFactor":0.200000002980232,"roughnessFactor":0.800000011920929}}],"meshes":[{"name":"Medical_Bandages","primitives":[{"attributes":{"NORMAL":2,"POSITION":1,"TEXCOORD_0":3},"indices":0,"material":0,"mode":4}]}],"nodes":[{"mesh":0,"name":"Medical_Bandages","originalUnits":0.00999999977648258,"pivot":[0,0,0],"rotation":[0,0,0,1],"scale":[1,1,1],"translation":[0,0,0]}],"samplers":[{}],"scene":0,"scenes":[{"name":"Root Scene","nodes":[0]}]}