{"accessors":[{"bufferView":0,"byteOffset":0,"componentType":5123,"count":456,"type":"SCALAR"},{"bufferView":1,"byteOffset":0,"componentType":5126,"count":292,"max":[0.0243333522230387,0.0835873782634735,0.0243337024003267],"min":[-0.02433405071497,0,-0.02433370240033],"type":"VEC3"},{"bufferView":2,"byteOffset":0,"componentType":5126,"count":292,"type":"VEC3"},{"bufferView":3,"byteOffset":0,"componentType":5126,"count":292,"type":"VEC2"}],"asset":{"generator":"FBX2glTF v0.13.0","version":"2.0"},"bufferViews":[{"buffer":0,"byteLength":912,"byteOffset":0,"target":34963},{"buffer":0,"byteLength":3504,"byteOffset":912,"target":34962},{"buffer":0,"byteLength":3504,"byteOffset":4416,"target":34962},{"buffer":0,"byteLength":2336,"byteOffset":7920,"target":34962}],"buffers":[{"byteLength":10256,"uri":"Medical_Salve2.bin"}],"materials":[{"alphaMode":"OPAQUE","doubleSided":false,"extras":{"fromFBX":{"isTruePBR":false,"shadingModel":"Lambert"}},"name":"DefaultMaterial","pbrMetallicRoughness":{"baseColorFactor":[0.5,0.5,0.5,1],"metallicFactor":0.200000002980232,"roughnessFactor":0.800000011920929}}],"meshes":[{"name":"Medical_Salve2","primitives":[{"attributes":{"NORMAL":2,"POSITION":1,"TEXCOORD_0":3},"indices":0,"material":0,"mode":4}]}],"nodes":[{"mesh":0,"name":"Medical_Salve2","originalUnits":0.00999999977648258,"pivot":[0,0,0],"rotation":[0,0,0,1],"scale":[1,1,1],"translation":[0,0,0]}],"samplers":[{}],"scene":0,"scenes":[{"name":"Root Scene","nodes":[0]}]}