{"accessors":[{"bufferView":0,"byteOffset":0,"componentType":5123,"count":204,"type":"SCALAR"},{"bufferView":1,"byteOffset":0,"componentType":5126,"count":112,"max":[0.0262236800044775,0.00110136799048632,0.00654826639220119],"min":[-0.02622277662158,0,-0.00654826126993],"type":"VEC3"},{"bufferView":2,"byteOffset":0,"componentType":5126,"count":112,"type":"VEC3"},{"bufferView":3,"byteOffset":0,"componentType":5126,"count":112,"type":"VEC2"}],"asset":{"generator":"FBX2glTF v0.13.0","version":"2.0"},"bufferViews":[{"buffer":0,"byteLength":408,"byteOffset":0,"target":34963},{"buffer":0,"byteLength":1344,"byteOffset":408,"target":34962},{"buffer":0,"byteLength":1344,"byteOffset":1752,"target":34962},{"buffer":0,"byteLength":896,"byteOffset":3096,"target":34962}],"buffers":[{"byteLength":3992,"uri":"Medical_Bandaid.bin"}],"materials":[{"alphaMode":"OPAQUE","doubleSided":false,"extras":{"fromFBX":{"isTruePBR":false,"shadingModel":"Lambert"}},"name":"DefaultMaterial","pbrMetallicRoughness":{"baseColorFactor":[0.5,0.5,0.5,1],"metallicFactor":0.200000002980232,"roughnessFactor":0.800000011920929}}],"meshes":[{"name":"Medical_Bandaid","primitives":[{"attributes":{"NORMAL":2,"POSITION":1,"TEXCOORD_0":3},"indices":0,"material":0,"mode":4}]}],"nodes":[{"mesh":0,"name":"Medical_Bandaid","originalUnits":0.00999999977648258,"pivot":[0,0,0],"rotation":[0,0,0,1],"scale":[1,1,1],"translation":[0,0,0]}],"samplers":[{}],"scene":0,"scenes":[{"name":"Root Scene","nodes":[0]}]}