{"accessors":[{"bufferView":0,"byteOffset":0,"componentType":5123,"count":744,"type":"SCALAR"},{"bufferView":1,"byteOffset":0,"componentType":5126,"count":466,"max":[0.0269946809858084,0.0410702638328075,0.027222141623497],"min":[-0.02722249738872,0,-0.0272221416235],"type":"VEC3"},{"bufferView":2,"byteOffset":0,"componentType":5126,"count":466,"type":"VEC3"},{"bufferView":3,"byteOffset":0,"componentType":5126,"count":466,"type":"VEC2"}],"asset":{"generator":"FBX2glTF v0.13.0","version":"2.0"},"bufferViews":[{"buffer":0,"byteLength":1488,"byteOffset":0,"target":34963},{"buffer":0,"byteLength":5592,"byteOffset":1488,"target":34962},{"buffer":0,"byteLength":5592,"byteOffset":7080,"target":34962},{"buffer":0,"byteLength":3728,"byteOffset":12672,"target":34962}],"buffers":[{"byteLength":16400,"uri":"Medical_Bandages1.bin"}],"materials":[{"alphaMode":"OPAQUE","doubleSided":false,"extras":{"fromFBX":{"isTruePBR":false,"shadingModel":"Lambert"}},"name":"DefaultMaterial","pbrMetallicRoughness":{"baseColorFactor":[0.5,0.5,0.5,1],"metallicFactor":0.200000002980232,"roughnessFactor":0.800000011920929}}],"meshes":[{"name":"Medical_Bandages1","primitives":[{"attributes":{"NORMAL":2,"POSITION":1,"TEXCOORD_0":3},"indices":0,"material":0,"mode":4}]}],"nodes":[{"mesh":0,"name":"Medical_Bandages1","originalUnits":0.00999999977648258,"pivot":[0,0,0],"rotation":[0,0,0,1],"scale":[1,1,1],"translation":[0,0,0]}],"samplers":[{}],"scene":0,"scenes":[{"name":"Root Scene","nodes":[0]}]}