{"accessors":[{"bufferView":0,"byteOffset":0,"componentType":5123,"count":1452,"type":"SCALAR"},{"bufferView":1,"byteOffset":0,"componentType":5126,"count":960,"max":[0.172023087739944,0.261130750179291,0.166695207357407],"min":[-0.1580298691988,0,-0.15552473068237],"type":"VEC3"},{"bufferView":2,"byteOffset":0,"componentType":5126,"count":960,"type":"VEC3"},{"bufferView":3,"byteOffset":0,"componentType":5126,"count":960,"type":"VEC2"}],"asset":{"generator":"FBX2glTF v0.13.0","version":"2.0"},"bufferViews":[{"buffer":0,"byteLength":2904,"byteOffset":0,"target":34963},{"buffer":0,"byteLength":11520,"byteOffset":2904,"target":34962},{"buffer":0,"byteLength":11520,"byteOffset":14424,"target":34962},{"buffer":0,"byteLength":7680,"byteOffset":25944,"target":34962}],"buffers":[{"byteLength":33624,"uri":"Pouch_Empty.bin"}],"materials":[{"alphaMode":"OPAQUE","doubleSided":false,"extras":{"fromFBX":{"isTruePBR":false,"shadingModel":"Lambert"}},"name":"DefaultMaterial","pbrMetallicRoughness":{"baseColorFactor":[0.5,0.5,0.5,1],"metallicFactor":0.200000002980232,"roughnessFactor":0.800000011920929}}],"meshes":[{"name":"Pouch_Empty","primitives":[{"attributes":{"NORMAL":2,"POSITION":1,"TEXCOORD_0":3},"indices":0,"material":0,"mode":4}]}],"nodes":[{"mesh":0,"name":"Pouch_Empty","originalUnits":0.00999999977648258,"pivot":[0,0,0],"rotation":[0,0,0,1],"scale":[1,1,1],"translation":[0,0,0]}],"samplers":[{}],"scene":0,"scenes":[{"name":"Root Scene","nodes":[0]}]}