{"accessors":[{"bufferView":0,"byteOffset":0,"componentType":5123,"count":666,"type":"SCALAR"},{"bufferView":1,"byteOffset":0,"componentType":5126,"count":480,"max":[0.0144778126850724,0.0031751855276525,0.0926650017499924],"min":[-0.01447781268507,-0.00317516294308,-0.09266500174999],"type":"VEC3"},{"bufferView":2,"byteOffset":0,"componentType":5126,"count":480,"type":"VEC3"},{"bufferView":3,"byteOffset":0,"componentType":5126,"count":480,"type":"VEC2"}],"asset":{"generator":"FBX2glTF v0.13.0","version":"2.0"},"bufferViews":[{"buffer":0,"byteLength":1332,"byteOffset":0,"target":34963},{"buffer":0,"byteLength":5760,"byteOffset":1332,"target":34962},{"buffer":0,"byteLength":5760,"byteOffset":7092,"target":34962},{"buffer":0,"byteLength":3840,"byteOffset":12852,"target":34962}],"buffers":[{"byteLength":16692,"uri":"Quill.bin"}],"materials":[{"alphaMode":"OPAQUE","doubleSided":false,"extras":{"fromFBX":{"isTruePBR":false,"shadingModel":"Lambert"}},"name":"DefaultMaterial","pbrMetallicRoughness":{"baseColorFactor":[0.5,0.5,0.5,1],"metallicFactor":0.200000002980232,"roughnessFactor":0.800000011920929}}],"meshes":[{"name":"Quill","primitives":[{"attributes":{"NORMAL":2,"POSITION":1,"TEXCOORD_0":3},"indices":0,"material":0,"mode":4}]}],"nodes":[{"mesh":0,"name":"Quill","originalUnits":0.00999999977648258,"pivot":[0,0,0],"rotation":[0,0,0,1],"scale":[1,1,1],"translation":[0,0,0]}],"samplers":[{}],"scene":0,"scenes":[{"name":"Root Scene","nodes":[0]}]}