{"accessors":[{"bufferView":0,"byteOffset":0,"componentType":5123,"count":2688,"type":"SCALAR"},{"bufferView":1,"byteOffset":0,"componentType":5126,"count":1788,"max":[0.0213971901684999,0.105525270104408,0.104749426245689],"min":[-0.02388241700828,-0.11003688722849,-0.10328003764153],"type":"VEC3"},{"bufferView":2,"byteOffset":0,"componentType":5126,"count":1788,"type":"VEC3"},{"bufferView":3,"byteOffset":0,"componentType":5126,"count":1788,"type":"VEC2"}],"asset":{"generator":"FBX2glTF v0.13.0","version":"2.0"},"bufferViews":[{"buffer":0,"byteLength":5376,"byteOffset":0,"target":34963},{"buffer":0,"byteLength":21456,"byteOffset":5376,"target":34962},{"buffer":0,"byteLength":21456,"byteOffset":26832,"target":34962},{"buffer":0,"byteLength":14304,"byteOffset":48288,"target":34962}],"buffers":[{"byteLength":62592,"uri":"Rope.bin"}],"materials":[{"alphaMode":"OPAQUE","doubleSided":false,"extras":{"fromFBX":{"isTruePBR":false,"shadingModel":"Lambert"}},"name":"DefaultMaterial","pbrMetallicRoughness":{"baseColorFactor":[0.5,0.5,0.5,1],"metallicFactor":0.200000002980232,"roughnessFactor":0.800000011920929}}],"meshes":[{"name":"Rope","primitives":[{"attributes":{"NORMAL":2,"POSITION":1,"TEXCOORD_0":3},"indices":0,"material":0,"mode":4}]}],"nodes":[{"mesh":0,"name":"Rope","originalUnits":0.00999999977648258,"pivot":[0,0,0],"rotation":[0,0,0,1],"scale":[1,1,1],"translation":[0,0,0]}],"samplers":[{}],"scene":0,"scenes":[{"name":"Root Scene","nodes":[0]}]}