{"accessors":[{"bufferView":0,"byteOffset":0,"componentType":5123,"count":624,"type":"SCALAR"},{"bufferView":1,"byteOffset":0,"componentType":5126,"count":400,"max":[0.06989536434412,0.297417908906937,0.0154898473992944],"min":[-0.06989536434412,-0.23862507939339,-0.01548984460533],"type":"VEC3"},{"bufferView":2,"byteOffset":0,"componentType":5126,"count":400,"type":"VEC3"},{"bufferView":3,"byteOffset":0,"componentType":5126,"count":400,"type":"VEC2"}],"asset":{"generator":"FBX2glTF v0.13.0","version":"2.0"},"bufferViews":[{"buffer":0,"byteLength":1248,"byteOffset":0,"target":34963},{"buffer":0,"byteLength":4800,"byteOffset":1248,"target":34962},{"buffer":0,"byteLength":4800,"byteOffset":6048,"target":34962},{"buffer":0,"byteLength":3200,"byteOffset":10848,"target":34962}],"buffers":[{"byteLength":14048,"uri":"Shovel.bin"}],"materials":[{"alphaMode":"OPAQUE","doubleSided":false,"extras":{"fromFBX":{"isTruePBR":false,"shadingModel":"Lambert"}},"name":"DefaultMaterial","pbrMetallicRoughness":{"baseColorFactor":[0.5,0.5,0.5,1],"metallicFactor":0.200000002980232,"roughnessFactor":0.800000011920929}}],"meshes":[{"name":"Shovel","primitives":[{"attributes":{"NORMAL":2,"POSITION":1,"TEXCOORD_0":3},"indices":0,"material":0,"mode":4}]}],"nodes":[{"mesh":0,"name":"Shovel","originalUnits":0.00999999977648258,"pivot":[0,0,0],"rotation":[0,0,0,1],"scale":[1,1,1],"translation":[0,0,0]}],"samplers":[{}],"scene":0,"scenes":[{"name":"Root Scene","nodes":[0]}]}