{"accessors":[{"bufferView":0,"byteOffset":0,"componentType":5123,"count":1332,"type":"SCALAR"},{"bufferView":1,"byteOffset":0,"componentType":5126,"count":812,"max":[0.0428103432059288,0.308738619089127,0.0428103283047676],"min":[-0.04281030967832,-0.27740064263344,-0.04281032830477],"type":"VEC3"},{"bufferView":2,"byteOffset":0,"componentType":5126,"count":812,"type":"VEC3"},{"bufferView":3,"byteOffset":0,"componentType":5126,"count":812,"type":"VEC2"}],"asset":{"generator":"FBX2glTF v0.13.0","version":"2.0"},"bufferViews":[{"buffer":0,"byteLength":2664,"byteOffset":0,"target":34963},{"buffer":0,"byteLength":9744,"byteOffset":2664,"target":34962},{"buffer":0,"byteLength":9744,"byteOffset":12408,"target":34962},{"buffer":0,"byteLength":6496,"byteOffset":22152,"target":34962}],"buffers":[{"byteLength":28648,"uri":"Spyglass.bin"}],"materials":[{"alphaMode":"OPAQUE","doubleSided":false,"extras":{"fromFBX":{"isTruePBR":false,"shadingModel":"Lambert"}},"name":"DefaultMaterial","pbrMetallicRoughness":{"baseColorFactor":[0.5,0.5,0.5,1],"metallicFactor":0.200000002980232,"roughnessFactor":0.800000011920929}}],"meshes":[{"name":"Spyglass","primitives":[{"attributes":{"NORMAL":2,"POSITION":1,"TEXCOORD_0":3},"indices":0,"material":0,"mode":4}]}],"nodes":[{"mesh":0,"name":"Spyglass","originalUnits":0.00999999977648258,"pivot":[0,0,0],"rotation":[0,0,0,1],"scale":[1,1,1],"translation":[0,0,0]}],"samplers":[{}],"scene":0,"scenes":[{"name":"Root Scene","nodes":[0]}]}