{"accessors":[{"bufferView":0,"byteOffset":0,"componentType":5123,"count":996,"type":"SCALAR"},{"bufferView":1,"byteOffset":0,"componentType":5126,"count":656,"max":[0.0346449352800846,0.194232776761055,0.0342498235404491],"min":[-0.03464493528008,-0.19423277676105,-0.03424982354045],"type":"VEC3"},{"bufferView":2,"byteOffset":0,"componentType":5126,"count":656,"type":"VEC3"},{"bufferView":3,"byteOffset":0,"componentType":5126,"count":656,"type":"VEC2"}],"asset":{"generator":"FBX2glTF v0.13.0","version":"2.0"},"bufferViews":[{"buffer":0,"byteLength":1992,"byteOffset":0,"target":34963},{"buffer":0,"byteLength":7872,"byteOffset":1992,"target":34962},{"buffer":0,"byteLength":7872,"byteOffset":9864,"target":34962},{"buffer":0,"byteLength":5248,"byteOffset":17736,"target":34962}],"buffers":[{"byteLength":22984,"uri":"Torch.bin"}],"materials":[{"alphaMode":"OPAQUE","doubleSided":false,"extras":{"fromFBX":{"isTruePBR":false,"shadingModel":"Lambert"}},"name":"DefaultMaterial","pbrMetallicRoughness":{"baseColorFactor":[0.5,0.5,0.5,1],"metallicFactor":0.200000002980232,"roughnessFactor":0.800000011920929}}],"meshes":[{"name":"Torch","primitives":[{"attributes":{"NORMAL":2,"POSITION":1,"TEXCOORD_0":3},"indices":0,"material":0,"mode":4}]}],"nodes":[{"mesh":0,"name":"Torch","originalUnits":0.00999999977648258,"pivot":[0,0,0],"rotation":[0,0,0,1],"scale":[1,1,1],"translation":[0,0,0]}],"samplers":[{}],"scene":0,"scenes":[{"name":"Root Scene","nodes":[0]}]}