{"accessors":[{"bufferView":0,"byteOffset":0,"componentType":5123,"count":612,"type":"SCALAR"},{"bufferView":1,"byteOffset":0,"componentType":5126,"count":384,"max":[0.085671566426754,0.209153279662132,0.0276162065565586],"min":[-0.08475560694933,-0.00012273287575,-0.02761621214449],"type":"VEC3"},{"bufferView":2,"byteOffset":0,"componentType":5126,"count":384,"type":"VEC3"},{"bufferView":3,"byteOffset":0,"componentType":5126,"count":384,"type":"VEC2"}],"asset":{"generator":"FBX2glTF v0.13.0","version":"2.0"},"bufferViews":[{"buffer":0,"byteLength":1224,"byteOffset":0,"target":34963},{"buffer":0,"byteLength":4608,"byteOffset":1224,"target":34962},{"buffer":0,"byteLength":4608,"byteOffset":5832,"target":34962},{"buffer":0,"byteLength":3072,"byteOffset":10440,"target":34962}],"buffers":[{"byteLength":13512,"uri":"Water_Flask.bin"}],"materials":[{"alphaMode":"OPAQUE","doubleSided":false,"extras":{"fromFBX":{"isTruePBR":false,"shadingModel":"Lambert"}},"name":"DefaultMaterial","pbrMetallicRoughness":{"baseColorFactor":[0.5,0.5,0.5,1],"metallicFactor":0.200000002980232,"roughnessFactor":0.800000011920929}}],"meshes":[{"name":"Water_Flask","primitives":[{"attributes":{"NORMAL":2,"POSITION":1,"TEXCOORD_0":3},"indices":0,"material":0,"mode":4}]}],"nodes":[{"mesh":0,"name":"Water_Flask","originalUnits":0.00999999977648258,"pivot":[0,0,0],"rotation":[0,0,0,1],"scale":[1,1,1],"translation":[0,0,0]}],"samplers":[{}],"scene":0,"scenes":[{"name":"Root Scene","nodes":[0]}]}